<svg width="48" height="48" viewBox="0 0 48 48" fill="none" xmlns="http://www.w3.org/2000/svg">
<path d="M40.6351 9.03505C37.5226 7.60667 34.2384 6.58721 30.8642 6.00208C30.8336 5.99694 30.8022 6.00138 30.7743 6.01481C30.7463 6.02824 30.7233 6.05 30.7082 6.07708C30.2852 6.82708 29.8172 7.80806 29.4902 8.57606C25.8531 8.02409 22.1535 8.02409 18.5163 8.57606C18.1516 7.72053 17.7389 6.88621 17.2803 6.07708C17.2649 6.05029 17.2418 6.02879 17.214 6.0154C17.1861 6.00202 17.1549 5.99737 17.1243 6.00208C13.7494 6.58408 10.4644 7.60407 7.35343 9.03505C7.32681 9.04521 7.30454 9.0643 7.29043 9.08905C1.0685 18.386 -0.638487 27.4549 0.198505 36.4098C0.201505 36.4518 0.228504 36.4938 0.261504 36.5208C3.88464 39.2046 7.9372 41.2537 12.2464 42.5807C12.2768 42.5903 12.3095 42.5899 12.3397 42.5797C12.3699 42.5694 12.3961 42.5498 12.4144 42.5237C13.3384 41.2637 14.1604 39.9347 14.8683 38.5367C14.8831 38.508 14.8882 38.4752 14.8828 38.4433C14.8773 38.4114 14.8618 38.3821 14.8384 38.3597C14.8228 38.3451 14.8045 38.3339 14.7844 38.3267C13.4918 37.83 12.2401 37.2332 11.0404 36.5418C11.0069 36.5228 10.982 36.4916 10.9708 36.4548C10.9596 36.4179 10.9631 36.3782 10.9804 36.3438C10.9906 36.3214 11.006 36.3019 11.0254 36.2868C11.2774 36.0978 11.5294 35.8998 11.7694 35.7018C11.7906 35.6847 11.816 35.6738 11.843 35.6701C11.8699 35.6664 11.8974 35.6701 11.9224 35.6808C19.7793 39.2687 28.2842 39.2687 36.0451 35.6808C36.0711 35.6695 36.0995 35.6656 36.1275 35.6693C36.1555 35.673 36.182 35.6842 36.2041 35.7018C36.4441 35.8998 36.6961 36.0978 36.9481 36.2868C36.9685 36.3017 36.9849 36.3214 36.9959 36.3443C37.0068 36.3671 37.0119 36.3922 37.0107 36.4175C37.0095 36.4428 37.0021 36.4673 36.989 36.489C36.976 36.5107 36.9579 36.5288 36.9361 36.5418C35.7392 37.2395 34.4858 37.8356 33.1892 38.3237C33.1685 38.3312 33.1497 38.3432 33.1341 38.3587C33.1186 38.3743 33.1066 38.3931 33.0992 38.4137C33.0922 38.4338 33.0894 38.455 33.091 38.4762C33.0925 38.4973 33.0984 38.5179 33.1082 38.5367C33.8282 39.9317 34.6531 41.2637 35.5591 42.5237C35.5774 42.5498 35.6036 42.5694 35.6338 42.5797C35.664 42.5899 35.6967 42.5903 35.7271 42.5807C40.0435 41.2578 44.1027 39.2084 47.73 36.5208C47.7482 36.5082 47.7633 36.4917 47.7742 36.4725C47.7851 36.4532 47.7915 36.4318 47.793 36.4098C48.795 26.0569 46.116 17.063 40.6951 9.09205C40.6896 9.07889 40.6815 9.06701 40.6711 9.05719C40.6608 9.04738 40.6485 9.03983 40.6351 9.03505ZM16.0413 30.9558C13.6744 30.9558 11.7274 28.7838 11.7274 26.1199C11.7274 23.4529 13.6384 21.2809 16.0413 21.2809C18.4623 21.2809 20.3913 23.4709 20.3553 26.1199C20.3553 28.7838 18.4443 30.9558 16.0413 30.9558ZM31.9892 30.9558C29.6252 30.9558 27.6752 28.7838 27.6752 26.1199C27.6752 23.4529 29.5862 21.2809 31.9892 21.2809C34.4101 21.2809 36.3421 23.4709 36.3031 26.1199C36.3031 28.7838 34.4101 30.9558 31.9892 30.9558Z" fill="black"/>
</svg>
