<svg width="48" height="48" viewBox="0 0 48 48" fill="none" xmlns="http://www.w3.org/2000/svg">
<path d="M33.0709 36.5859C39.1191 35.8659 44.3812 32.1608 45.0412 28.7767C46.0852 23.4426 46.0012 15.7594 46.0012 15.7594C46.0012 5.34913 39.1431 2.29506 39.1431 2.29506C35.687 0.714018 29.7498 0.0510013 23.5817 0H23.4317C17.2605 0.0510013 11.3264 0.714018 7.87029 2.29506C7.87029 2.29506 1.01512 5.34613 1.01512 15.7594L1.00912 17.7454C0.99712 19.6655 0.98812 21.7955 1.04212 24.0186C1.29113 34.2008 2.92017 44.2391 12.3824 46.7292C16.7445 47.8782 20.4916 48.1182 23.5097 47.9532C28.9788 47.6532 32.0509 46.0121 32.0509 46.0121L31.8709 42.061C31.8709 42.061 27.9618 43.2911 23.5697 43.1411C19.2196 42.9911 14.6295 42.6731 13.9244 37.3569C13.8573 36.8638 13.8242 36.3666 13.8254 35.8689C13.8254 35.8689 18.0975 36.9069 23.5097 37.1529C26.8188 37.3029 29.9208 36.9609 33.0739 36.5859H33.0709ZM37.91 29.1757H32.8909V16.9354C32.8909 14.3584 31.7989 13.0503 29.6178 13.0503C27.2058 13.0503 25.9967 14.6014 25.9967 17.6734V24.3726H21.0046V17.6704C21.0046 14.5984 19.7956 13.0473 17.3835 13.0473C15.2025 13.0473 14.1104 14.3554 14.1104 16.9354V29.1727H9.09132V16.5664C9.09132 13.9893 9.75134 11.9433 11.0714 10.4283C12.4394 8.91322 14.2274 8.1362 16.4505 8.1362C19.0186 8.1362 20.9626 9.12023 22.2496 11.0853L23.5007 13.1703L24.7517 11.0853C26.0387 9.12023 27.9828 8.1362 30.5539 8.1362C32.7739 8.1362 34.562 8.91322 35.927 10.4283C37.253 11.9433 37.91 13.9893 37.91 16.5664V29.1757Z" fill="black"/>
</svg>
