<svg width="48" height="48" viewBox="0 0 48 48" fill="none" xmlns="http://www.w3.org/2000/svg">
<g clip-path="url(#clip0_47_15)">
<path d="M10.086 30.33C10.086 33.108 7.818 35.373 5.043 35.373C2.268 35.373 0 33.108 0 30.333C0 27.558 2.268 25.29 5.04 25.29H10.086V30.33ZM12.624 30.33C12.624 27.558 14.892 25.29 17.667 25.29C20.442 25.29 22.71 27.558 22.71 30.33V42.96C22.71 45.732 20.442 48 17.67 48C16.3335 47.9976 15.0523 47.4661 14.1067 46.5216C13.1611 45.5771 12.628 44.2965 12.624 42.96V30.33ZM17.67 10.086C14.892 10.086 12.624 7.818 12.624 5.043C12.624 2.268 14.892 0 17.67 0C20.448 0 22.71 2.268 22.71 5.04V10.086H17.67ZM17.67 12.624C20.442 12.624 22.71 14.892 22.71 17.667C22.71 20.442 20.442 22.71 17.67 22.71H5.04C2.271 22.71 0 20.442 0 17.67C0 14.892 2.268 12.624 5.04 12.624H17.67ZM37.917 17.67C37.917 14.892 40.182 12.624 42.957 12.624C45.732 12.624 48 14.892 48 17.667C48 20.442 45.732 22.71 42.96 22.71H37.917V17.67ZM35.373 17.67C35.373 20.442 33.108 22.71 30.333 22.71C28.997 22.7068 27.7166 22.1749 26.7716 21.2305C25.8266 20.2861 25.294 19.006 25.29 17.67V5.04C25.29 2.271 27.558 0 30.33 0C33.108 0 35.373 2.268 35.373 5.04V17.67ZM30.33 37.914C33.108 37.914 35.376 40.182 35.376 42.957C35.376 45.732 33.108 48 30.33 48C27.552 48 25.287 45.732 25.287 42.96V37.914H30.33ZM30.33 35.373C27.558 35.373 25.29 33.108 25.29 30.333C25.29 27.558 27.558 25.29 30.33 25.29H42.96C45.732 25.29 48 27.558 48 30.33C48 33.108 45.732 35.373 42.96 35.373H30.33Z" fill="black"/>
</g>
<defs>
<clipPath id="clip0_47_15">
<rect width="48" height="48" fill="white"/>
</clipPath>
</defs>
</svg>
