<svg width="70" height="70" viewBox="0 0 70 70" fill="none" xmlns="http://www.w3.org/2000/svg">
<path fill-rule="evenodd" clip-rule="evenodd" d="M33.25 1L58 15.2893L33.25 29.5786V20.9177C23.5403 22.0332 16 30.2808 16 40.2893C16 51.0588 24.7305 59.7893 35.5 59.7893C46.2695 59.7893 55 51.0588 55 40.2893C55 40.1221 54.9978 39.9556 54.9937 39.7893H64.9958C64.9985 39.9556 65 40.1223 65 40.2893C65 56.5818 51.7925 69.7893 35.5 69.7893C19.2075 69.7893 6 56.5818 6 40.2893C6 24.7539 18.0088 12.0232 33.25 10.8738V1Z" fill="black"/>
<path d="M41.1506 49.2386C40.0142 49.2386 38.9972 49.0255 38.0994 48.5994C37.2017 48.1676 36.4886 47.5767 35.9602 46.8267C35.4375 46.0767 35.1591 45.2187 35.125 44.2528H38.1932C38.25 44.9687 38.5597 45.5539 39.1222 46.0085C39.6847 46.4573 40.3608 46.6818 41.1506 46.6818C41.7699 46.6818 42.321 46.5397 42.804 46.2556C43.2869 45.9715 43.6676 45.5767 43.946 45.071C44.2244 44.5653 44.3608 43.9886 44.3551 43.3409C44.3608 42.6818 44.2216 42.0965 43.9375 41.5852C43.6534 41.0738 43.2642 40.6733 42.7699 40.3835C42.2756 40.088 41.7074 39.9403 41.0653 39.9403C40.5426 39.9346 40.0284 40.0312 39.5227 40.2301C39.017 40.4289 38.6165 40.6903 38.321 41.0142L35.4659 40.5454L36.3778 31.5454H46.5028V34.1875H38.9943L38.4915 38.8153H38.5938C38.9176 38.4346 39.375 38.1193 39.9659 37.8693C40.5568 37.6136 41.2045 37.4858 41.9091 37.4858C42.9659 37.4858 43.9091 37.7358 44.7386 38.2358C45.5682 38.7301 46.2216 39.4119 46.6989 40.2812C47.1761 41.1505 47.4148 42.1448 47.4148 43.2642C47.4148 44.4176 47.1477 45.446 46.6136 46.3494C46.0852 47.2471 45.3494 47.9545 44.4062 48.4715C43.4688 48.9829 42.3835 49.2386 41.1506 49.2386Z" fill="black"/>
<path d="M30.6505 31.5454V49H27.4886V34.6221H27.3863L23.304 37.2301V34.3323L27.642 31.5454H30.6505Z" fill="black"/>
</svg>
