<svg width="175" height="50" viewBox="0 0 175 50" fill="none" xmlns="http://www.w3.org/2000/svg">
<rect x="0.5" y="0.5" width="174" height="49" rx="7.5" stroke="#8D8D8D"/>
<path d="M56.233 20V9.81818H57.4659V18.9062H62.1989V20H56.233ZM63.9489 20V12.3636H65.1222V20H63.9489ZM64.5455 11.0909C64.3168 11.0909 64.1196 11.013 63.9538 10.8572C63.7914 10.7015 63.7102 10.5142 63.7102 10.2955C63.7102 10.0767 63.7914 9.88944 63.9538 9.73366C64.1196 9.57789 64.3168 9.5 64.5455 9.5C64.7741 9.5 64.9697 9.57789 65.1321 9.73366C65.2978 9.88944 65.3807 10.0767 65.3807 10.2955C65.3807 10.5142 65.2978 10.7015 65.1321 10.8572C64.9697 11.013 64.7741 11.0909 64.5455 11.0909ZM72.6802 14.0739L71.6262 14.3722C71.56 14.1965 71.4622 14.0258 71.3329 13.8601C71.207 13.6911 71.0346 13.5518 70.8159 13.4425C70.5971 13.3331 70.3171 13.2784 69.9757 13.2784C69.5083 13.2784 69.1189 13.3861 68.8074 13.6016C68.4991 13.8137 68.345 14.0838 68.345 14.4119C68.345 14.7036 68.4511 14.9339 68.6632 15.103C68.8753 15.272 69.2067 15.4129 69.6575 15.5256L70.791 15.804C71.4738 15.9697 71.9825 16.2232 72.3173 16.5646C72.652 16.9027 72.8194 17.3385 72.8194 17.8722C72.8194 18.3097 72.6935 18.7008 72.4416 19.0455C72.193 19.3902 71.845 19.6619 71.3975 19.8608C70.9501 20.0597 70.4297 20.1591 69.8365 20.1591C69.0576 20.1591 68.4129 19.9901 67.9025 19.652C67.3921 19.3139 67.069 18.8201 66.9331 18.1705L68.0467 17.892C68.1528 18.303 68.3533 18.6113 68.6483 18.8168C68.9466 19.0223 69.336 19.125 69.8166 19.125C70.3635 19.125 70.7976 19.009 71.1191 18.777C71.444 18.5417 71.6064 18.2599 71.6064 17.9318C71.6064 17.6667 71.5136 17.4446 71.3279 17.2656C71.1423 17.0833 70.8573 16.9474 70.4728 16.858L69.2001 16.5597C68.5008 16.3939 67.987 16.1371 67.6589 15.7891C67.3341 15.4377 67.1717 14.9986 67.1717 14.4716C67.1717 14.0407 67.2927 13.6596 67.5346 13.3281C67.7799 12.9967 68.113 12.7365 68.5339 12.5476C68.9582 12.3587 69.4387 12.2642 69.9757 12.2642C70.7314 12.2642 71.3246 12.4299 71.7555 12.7614C72.1897 13.0928 72.4979 13.5303 72.6802 14.0739ZM77.9066 12.3636V13.358H73.9492V12.3636H77.9066ZM75.1026 10.5341H76.2759V17.8125C76.2759 18.1439 76.324 18.3925 76.4201 18.5582C76.5195 18.7206 76.6455 18.83 76.7979 18.8864C76.9537 18.9394 77.1178 18.9659 77.2901 18.9659C77.4194 18.9659 77.5255 18.9593 77.6083 18.946C77.6912 18.9295 77.7575 18.9162 77.8072 18.9062L78.0458 19.9602C77.9663 19.9901 77.8552 20.0199 77.7127 20.0497C77.5702 20.0829 77.3896 20.0994 77.1708 20.0994C76.8394 20.0994 76.5146 20.0282 76.1964 19.8857C75.8815 19.7431 75.6197 19.526 75.4109 19.2344C75.2054 18.9427 75.1026 18.5748 75.1026 18.1307V10.5341ZM82.7912 20.1591C82.0554 20.1591 81.4207 19.9967 80.8871 19.6719C80.3568 19.3438 79.9474 18.8864 79.6591 18.2997C79.3741 17.7098 79.2315 17.0237 79.2315 16.2415C79.2315 15.4593 79.3741 14.7699 79.6591 14.1733C79.9474 13.5734 80.3485 13.1061 80.8622 12.7713C81.3793 12.4332 81.9825 12.2642 82.6719 12.2642C83.0696 12.2642 83.4624 12.3305 83.8501 12.4631C84.2379 12.5956 84.5909 12.8111 84.9091 13.1094C85.2273 13.4044 85.4808 13.7955 85.6697 14.2827C85.8587 14.7699 85.9531 15.3698 85.9531 16.0824V16.5795H80.0668V15.5653H84.7599C84.7599 15.1345 84.6738 14.75 84.5014 14.4119C84.3324 14.0739 84.0904 13.8071 83.7756 13.6115C83.464 13.416 83.0961 13.3182 82.6719 13.3182C82.2045 13.3182 81.8002 13.4342 81.4588 13.6662C81.1207 13.8949 80.8606 14.1932 80.6783 14.5611C80.496 14.929 80.4048 15.3234 80.4048 15.7443V16.4205C80.4048 16.9972 80.5043 17.486 80.7031 17.8871C80.9053 18.2848 81.1854 18.5881 81.5433 18.7969C81.9013 19.0024 82.3172 19.1051 82.7912 19.1051C83.0994 19.1051 83.3778 19.062 83.6264 18.9759C83.8783 18.8864 84.0954 18.7538 84.2777 18.5781C84.46 18.3991 84.6009 18.1771 84.7003 17.9119L85.8338 18.2301C85.7145 18.6146 85.514 18.9527 85.2322 19.2443C84.9505 19.5327 84.6025 19.758 84.1882 19.9205C83.7739 20.0795 83.3082 20.1591 82.7912 20.1591ZM88.9112 15.4062V20H87.7379V12.3636H88.8714V13.5568H88.9709C89.1499 13.169 89.4216 12.8575 89.7862 12.6222C90.1508 12.3835 90.6214 12.2642 91.1982 12.2642C91.7152 12.2642 92.1676 12.3703 92.5554 12.5824C92.9432 12.7912 93.2448 13.1094 93.4602 13.5369C93.6757 13.9612 93.7834 14.4981 93.7834 15.1477V20H92.6101V15.2273C92.6101 14.6274 92.4543 14.16 92.1428 13.8253C91.8312 13.4872 91.4036 13.3182 90.8601 13.3182C90.4856 13.3182 90.1508 13.3994 89.8558 13.5618C89.5642 13.7242 89.3338 13.9612 89.1648 14.2727C88.9957 14.5843 88.9112 14.9621 88.9112 15.4062ZM102.967 20.1591C102.278 20.1591 101.673 19.995 101.153 19.6669C100.635 19.3388 100.231 18.8797 99.9395 18.2898C99.6511 17.6998 99.5069 17.0104 99.5069 16.2216C99.5069 15.4261 99.6511 14.7318 99.9395 14.1385C100.231 13.5452 100.635 13.0845 101.153 12.7564C101.673 12.4283 102.278 12.2642 102.967 12.2642C103.657 12.2642 104.26 12.4283 104.777 12.7564C105.297 13.0845 105.702 13.5452 105.99 14.1385C106.282 14.7318 106.427 15.4261 106.427 16.2216C106.427 17.0104 106.282 17.6998 105.99 18.2898C105.702 18.8797 105.297 19.3388 104.777 19.6669C104.26 19.995 103.657 20.1591 102.967 20.1591ZM102.967 19.1051C103.491 19.1051 103.922 18.9709 104.26 18.7024C104.598 18.4339 104.848 18.081 105.01 17.6435C105.173 17.206 105.254 16.732 105.254 16.2216C105.254 15.7112 105.173 15.2356 105.01 14.7947C104.848 14.3539 104.598 13.9976 104.26 13.7259C103.922 13.4541 103.491 13.3182 102.967 13.3182C102.443 13.3182 102.013 13.4541 101.675 13.7259C101.336 13.9976 101.086 14.3539 100.924 14.7947C100.761 15.2356 100.68 15.7112 100.68 16.2216C100.68 16.732 100.761 17.206 100.924 17.6435C101.086 18.081 101.336 18.4339 101.675 18.7024C102.013 18.9709 102.443 19.1051 102.967 19.1051ZM109.392 15.4062V20H108.218V12.3636H109.352V13.5568H109.451C109.63 13.169 109.902 12.8575 110.267 12.6222C110.631 12.3835 111.102 12.2642 111.679 12.2642C112.196 12.2642 112.648 12.3703 113.036 12.5824C113.424 12.7912 113.725 13.1094 113.941 13.5369C114.156 13.9612 114.264 14.4981 114.264 15.1477V20H113.091V15.2273C113.091 14.6274 112.935 14.16 112.623 13.8253C112.312 13.4872 111.884 13.3182 111.341 13.3182C110.966 13.3182 110.631 13.3994 110.336 13.5618C110.045 13.7242 109.814 13.9612 109.645 14.2727C109.476 14.5843 109.392 14.9621 109.392 15.4062Z" fill="#212121"/>
<path d="M60.6094 28.3516L57.3672 38H55.0938L59.3438 26.625H60.7969L60.6094 28.3516ZM63.3203 38L60.0625 28.3516L59.8672 26.625H61.3281L65.6016 38H63.3203ZM63.1719 33.7734V35.4688H57.0703V33.7734H63.1719ZM68.4688 31.2812V38H66.4062V29.5469H68.3516L68.4688 31.2812ZM68.1641 33.4688H67.5312C67.5312 32.8802 67.6016 32.3385 67.7422 31.8438C67.888 31.349 68.1016 30.9193 68.3828 30.5547C68.6641 30.1849 69.0104 29.8984 69.4219 29.6953C69.8385 29.4922 70.3203 29.3906 70.8672 29.3906C71.2474 29.3906 71.5964 29.4479 71.9141 29.5625C72.2318 29.6719 72.5052 29.8464 72.7344 30.0859C72.9688 30.3203 73.1484 30.6276 73.2734 31.0078C73.3984 31.3828 73.4609 31.8333 73.4609 32.3594V38H71.3984V32.5703C71.3984 32.1745 71.3411 31.8646 71.2266 31.6406C71.1172 31.4167 70.9583 31.2604 70.75 31.1719C70.5417 31.0781 70.2917 31.0312 70 31.0312C69.6771 31.0312 69.3984 31.0964 69.1641 31.2266C68.9349 31.3516 68.7448 31.526 68.5938 31.75C68.4479 31.974 68.3385 32.2318 68.2656 32.5234C68.1979 32.8151 68.1641 33.1302 68.1641 33.4688ZM73.3047 33.0859L72.4531 33.2422C72.4583 32.7109 72.5312 32.2135 72.6719 31.75C72.8125 31.2812 73.0182 30.8724 73.2891 30.5234C73.5651 30.1693 73.9062 29.8932 74.3125 29.6953C74.724 29.4922 75.1979 29.3906 75.7344 29.3906C76.151 29.3906 76.526 29.4505 76.8594 29.5703C77.1979 29.6849 77.487 29.8698 77.7266 30.125C77.9661 30.375 78.1484 30.7005 78.2734 31.1016C78.4036 31.5026 78.4688 31.9922 78.4688 32.5703V38H76.3906V32.5625C76.3906 32.151 76.3333 31.8359 76.2188 31.6172C76.1094 31.3984 75.9505 31.2474 75.7422 31.1641C75.5339 31.0755 75.2891 31.0312 75.0078 31.0312C74.7214 31.0312 74.4714 31.0859 74.2578 31.1953C74.0495 31.2995 73.8724 31.4453 73.7266 31.6328C73.5859 31.8203 73.4792 32.0391 73.4062 32.2891C73.3385 32.5339 73.3047 32.7995 73.3047 33.0859ZM84.9766 36.2031V32.3047C84.9766 32.0182 84.9271 31.7708 84.8281 31.5625C84.7292 31.3542 84.5781 31.1927 84.375 31.0781C84.1719 30.9635 83.9141 30.9062 83.6016 30.9062C83.3255 30.9062 83.0833 30.9531 82.875 31.0469C82.6719 31.1406 82.5156 31.2734 82.4062 31.4453C82.2969 31.612 82.2422 31.8047 82.2422 32.0234H80.1719C80.1719 31.6745 80.2552 31.3438 80.4219 31.0312C80.5885 30.7135 80.8255 30.4323 81.1328 30.1875C81.4453 29.9375 81.8177 29.7422 82.25 29.6016C82.6875 29.4609 83.1771 29.3906 83.7188 29.3906C84.3594 29.3906 84.9297 29.5 85.4297 29.7188C85.9349 29.9323 86.3307 30.2552 86.6172 30.6875C86.9089 31.1198 87.0547 31.6641 87.0547 32.3203V36.0078C87.0547 36.4297 87.0807 36.7917 87.1328 37.0938C87.1901 37.3906 87.2734 37.6484 87.3828 37.8672V38H85.2812C85.1823 37.7865 85.1068 37.5156 85.0547 37.1875C85.0026 36.8542 84.9766 36.526 84.9766 36.2031ZM85.2656 32.8516L85.2812 34.0781H83.9766C83.6536 34.0781 83.3698 34.112 83.125 34.1797C82.8802 34.2422 82.6797 34.3359 82.5234 34.4609C82.3672 34.5807 82.25 34.7266 82.1719 34.8984C82.0938 35.0651 82.0547 35.2552 82.0547 35.4688C82.0547 35.6771 82.1016 35.8646 82.1953 36.0312C82.2943 36.1979 82.4349 36.3307 82.6172 36.4297C82.8047 36.5234 83.0234 36.5703 83.2734 36.5703C83.638 36.5703 83.9557 36.4974 84.2266 36.3516C84.4974 36.2005 84.7083 36.0182 84.8594 35.8047C85.0104 35.5911 85.0911 35.388 85.1016 35.1953L85.6953 36.0859C85.6224 36.2995 85.513 36.526 85.3672 36.7656C85.2214 37.0052 85.0339 37.2292 84.8047 37.4375C84.5755 37.6458 84.2995 37.8177 83.9766 37.9531C83.6536 38.0885 83.2786 38.1562 82.8516 38.1562C82.3047 38.1562 81.8151 38.0469 81.3828 37.8281C80.9505 37.6094 80.6094 37.3099 80.3594 36.9297C80.1094 36.5495 79.9844 36.1172 79.9844 35.6328C79.9844 35.1849 80.0677 34.7891 80.2344 34.4453C80.401 34.1016 80.6484 33.8125 80.9766 33.5781C81.3047 33.3385 81.7109 33.1589 82.1953 33.0391C82.6849 32.9141 83.2448 32.8516 83.875 32.8516H85.2656ZM95.5391 36.375V38H89.1797V36.375H95.5391ZM95.3906 30.7812L89.9531 38H88.5938V36.7266L94 29.5469H95.3906V30.7812ZM94.6328 29.5469V31.1797H88.7031V29.5469H94.6328ZM96.5156 33.8594V33.6953C96.5156 33.0755 96.6042 32.5052 96.7812 31.9844C96.9583 31.4583 97.2161 31.0026 97.5547 30.6172C97.8932 30.2318 98.3073 29.9323 98.7969 29.7188C99.2865 29.5 99.8438 29.3906 100.469 29.3906C101.104 29.3906 101.667 29.5 102.156 29.7188C102.651 29.9323 103.068 30.2318 103.406 30.6172C103.745 31.0026 104.003 31.4583 104.18 31.9844C104.357 32.5052 104.445 33.0755 104.445 33.6953V33.8594C104.445 34.474 104.357 35.0443 104.18 35.5703C104.003 36.0911 103.745 36.5469 103.406 36.9375C103.068 37.3229 102.654 37.6224 102.164 37.8359C101.674 38.0495 101.115 38.1562 100.484 38.1562C99.8594 38.1562 99.2995 38.0495 98.8047 37.8359C98.3099 37.6224 97.8932 37.3229 97.5547 36.9375C97.2161 36.5469 96.9583 36.0911 96.7812 35.5703C96.6042 35.0443 96.5156 34.474 96.5156 33.8594ZM98.5781 33.6953V33.8594C98.5781 34.2292 98.6146 34.5755 98.6875 34.8984C98.7604 35.2214 98.8724 35.5052 99.0234 35.75C99.1745 35.9948 99.3698 36.1875 99.6094 36.3281C99.8542 36.4635 100.146 36.5312 100.484 36.5312C100.818 36.5312 101.104 36.4635 101.344 36.3281C101.583 36.1875 101.779 35.9948 101.93 35.75C102.086 35.5052 102.201 35.2214 102.273 34.8984C102.346 34.5755 102.383 34.2292 102.383 33.8594V33.6953C102.383 33.3307 102.346 32.9896 102.273 32.6719C102.201 32.349 102.086 32.0651 101.93 31.8203C101.779 31.5703 101.581 31.375 101.336 31.2344C101.096 31.0885 100.807 31.0156 100.469 31.0156C100.135 31.0156 99.849 31.0885 99.6094 31.2344C99.3698 31.375 99.1745 31.5703 99.0234 31.8203C98.8724 32.0651 98.7604 32.349 98.6875 32.6719C98.6146 32.9896 98.5781 33.3307 98.5781 33.6953ZM107.969 31.3516V38H105.906V29.5469H107.844L107.969 31.3516ZM107.641 33.4688H107.031C107.036 32.8542 107.12 32.2969 107.281 31.7969C107.443 31.2969 107.669 30.8672 107.961 30.5078C108.258 30.1484 108.609 29.8724 109.016 29.6797C109.422 29.487 109.875 29.3906 110.375 29.3906C110.781 29.3906 111.148 29.4479 111.477 29.5625C111.805 29.6771 112.086 29.8594 112.32 30.1094C112.56 30.3594 112.742 30.6875 112.867 31.0938C112.997 31.4948 113.062 31.9896 113.062 32.5781V38H110.984V32.5625C110.984 32.1771 110.927 31.8724 110.812 31.6484C110.703 31.4245 110.542 31.2656 110.328 31.1719C110.12 31.0781 109.862 31.0312 109.555 31.0312C109.237 31.0312 108.958 31.0964 108.719 31.2266C108.484 31.3516 108.286 31.526 108.125 31.75C107.969 31.974 107.849 32.2318 107.766 32.5234C107.682 32.8151 107.641 33.1302 107.641 33.4688ZM119.961 26.625H121.82L124.93 35.1875L128.031 26.625H129.898L125.672 38H124.18L119.961 26.625ZM119.023 26.625H120.844L121.172 34.4922V38H119.023V26.625ZM129.008 26.625H130.836V38H128.688V34.4922L129.008 26.625ZM137.898 35.9922V29.5469H139.977V38H138.023L137.898 35.9922ZM138.164 34.2422L138.805 34.2266C138.805 34.7943 138.742 35.3177 138.617 35.7969C138.492 36.276 138.297 36.6927 138.031 37.0469C137.771 37.3958 137.44 37.6693 137.039 37.8672C136.638 38.0599 136.164 38.1562 135.617 38.1562C135.201 38.1562 134.82 38.099 134.477 37.9844C134.133 37.8646 133.836 37.6797 133.586 37.4297C133.341 37.1745 133.151 36.849 133.016 36.4531C132.88 36.0521 132.812 35.5703 132.812 35.0078V29.5469H134.875V35.0234C134.875 35.3047 134.906 35.5391 134.969 35.7266C135.036 35.9141 135.128 36.0677 135.242 36.1875C135.362 36.3021 135.5 36.3854 135.656 36.4375C135.818 36.4844 135.99 36.5078 136.172 36.5078C136.672 36.5078 137.065 36.4089 137.352 36.2109C137.643 36.0078 137.852 35.737 137.977 35.3984C138.102 35.0547 138.164 34.6693 138.164 34.2422ZM146.453 35.6875C146.453 35.5104 146.406 35.3516 146.312 35.2109C146.219 35.0703 146.042 34.9427 145.781 34.8281C145.526 34.7083 145.151 34.5964 144.656 34.4922C144.219 34.3984 143.815 34.2812 143.445 34.1406C143.076 34 142.758 33.8307 142.492 33.6328C142.227 33.4297 142.018 33.1927 141.867 32.9219C141.721 32.6458 141.648 32.3281 141.648 31.9688C141.648 31.6198 141.724 31.2917 141.875 30.9844C142.026 30.6719 142.245 30.3984 142.531 30.1641C142.818 29.9245 143.167 29.737 143.578 29.6016C143.99 29.4609 144.453 29.3906 144.969 29.3906C145.688 29.3906 146.305 29.5078 146.82 29.7422C147.341 29.9766 147.74 30.2995 148.016 30.7109C148.292 31.1172 148.43 31.5755 148.43 32.0859H146.367C146.367 31.862 146.315 31.6589 146.211 31.4766C146.112 31.2943 145.958 31.1484 145.75 31.0391C145.542 30.9245 145.279 30.8672 144.961 30.8672C144.674 30.8672 144.432 30.9141 144.234 31.0078C144.042 31.1016 143.896 31.224 143.797 31.375C143.698 31.526 143.648 31.6927 143.648 31.875C143.648 32.0104 143.674 32.1328 143.727 32.2422C143.784 32.3464 143.875 32.4427 144 32.5312C144.125 32.6198 144.294 32.7005 144.508 32.7734C144.727 32.8464 144.995 32.9167 145.312 32.9844C145.943 33.1094 146.492 33.276 146.961 33.4844C147.435 33.6875 147.805 33.9583 148.07 34.2969C148.336 34.6354 148.469 35.0677 148.469 35.5938C148.469 35.9688 148.388 36.3125 148.227 36.625C148.065 36.9323 147.831 37.2005 147.523 37.4297C147.216 37.6589 146.849 37.8385 146.422 37.9688C145.995 38.0938 145.513 38.1562 144.977 38.1562C144.201 38.1562 143.544 38.0182 143.008 37.7422C142.471 37.4609 142.065 37.1068 141.789 36.6797C141.513 36.2474 141.375 35.7995 141.375 35.3359H143.352C143.367 35.6641 143.456 35.9271 143.617 36.125C143.779 36.3229 143.982 36.4661 144.227 36.5547C144.477 36.638 144.74 36.6797 145.016 36.6797C145.328 36.6797 145.591 36.638 145.805 36.5547C146.018 36.4661 146.18 36.349 146.289 36.2031C146.398 36.0521 146.453 35.8802 146.453 35.6875ZM152.227 29.5469V38H150.156V29.5469H152.227ZM150.016 27.3359C150.016 27.0286 150.12 26.7734 150.328 26.5703C150.542 26.3672 150.828 26.2656 151.188 26.2656C151.547 26.2656 151.831 26.3672 152.039 26.5703C152.253 26.7734 152.359 27.0286 152.359 27.3359C152.359 27.638 152.253 27.8906 152.039 28.0938C151.831 28.2969 151.547 28.3984 151.188 28.3984C150.828 28.3984 150.542 28.2969 150.328 28.0938C150.12 27.8906 150.016 27.638 150.016 27.3359ZM157.664 36.5312C157.956 36.5312 158.216 36.474 158.445 36.3594C158.674 36.2448 158.857 36.0833 158.992 35.875C159.133 35.6667 159.208 35.4245 159.219 35.1484H161.164C161.154 35.7214 160.992 36.2344 160.68 36.6875C160.367 37.1406 159.951 37.5 159.43 37.7656C158.914 38.026 158.336 38.1562 157.695 38.1562C157.044 38.1562 156.477 38.0469 155.992 37.8281C155.508 37.6094 155.104 37.3047 154.781 36.9141C154.464 36.5234 154.224 36.0703 154.062 35.5547C153.906 35.0391 153.828 34.487 153.828 33.8984V33.6484C153.828 33.0599 153.906 32.5078 154.062 31.9922C154.224 31.4766 154.464 31.0234 154.781 30.6328C155.104 30.2422 155.508 29.9375 155.992 29.7188C156.477 29.5 157.042 29.3906 157.688 29.3906C158.37 29.3906 158.969 29.5234 159.484 29.7891C160.005 30.0547 160.411 30.4297 160.703 30.9141C161 31.3984 161.154 31.9688 161.164 32.625H159.219C159.208 32.3229 159.141 32.0521 159.016 31.8125C158.891 31.5729 158.714 31.3802 158.484 31.2344C158.255 31.0885 157.977 31.0156 157.648 31.0156C157.299 31.0156 157.008 31.0885 156.773 31.2344C156.544 31.3802 156.365 31.5807 156.234 31.8359C156.109 32.0859 156.021 32.3672 155.969 32.6797C155.922 32.987 155.898 33.3099 155.898 33.6484V33.8984C155.898 34.2422 155.922 34.5703 155.969 34.8828C156.021 35.1953 156.109 35.4766 156.234 35.7266C156.365 35.9714 156.544 36.1667 156.773 36.3125C157.008 36.4583 157.305 36.5312 157.664 36.5312Z" fill="#212121"/>
<g clip-path="url(#clip0_46_91)">
<path d="M38.9916 36.0645C24.4189 42.9999 15.3749 37.1972 9.58555 33.6728C9.2273 33.4507 8.61841 33.7248 9.14671 34.3316C11.0754 36.6702 17.3963 42.3069 25.6468 42.3069C33.903 42.3069 38.8147 37.802 39.4291 37.0161C40.0394 36.2369 39.6083 35.8071 38.9915 36.0645H38.9916ZM43.0844 33.8042C42.693 33.2946 40.7047 33.1997 39.4535 33.3534C38.2002 33.5026 36.3191 34.2686 36.4827 34.7284C36.5666 34.9007 36.7379 34.8234 37.5988 34.746C38.4621 34.6599 40.8805 34.3547 41.3844 35.0134C41.8907 35.6767 40.6131 38.8365 40.3797 39.3461C40.1543 39.8557 40.4659 39.9872 40.8893 39.6477C41.307 39.3085 42.0631 38.4298 42.5705 37.1864C43.0744 35.9363 43.3818 34.1923 43.0844 33.8042Z" fill="#FF9900"/>
<path fill-rule="evenodd" clip-rule="evenodd" d="M29.193 21.913C29.193 23.7327 29.239 25.2503 28.3192 26.8663C27.5768 28.1804 26.4009 28.9884 25.087 28.9884C23.2934 28.9884 22.2489 27.6219 22.2489 25.6051C22.2489 21.6238 25.8161 20.9013 29.193 20.9013V21.913ZM33.9034 33.2981C33.5945 33.5739 33.1478 33.5937 32.7997 33.4097C31.2493 32.1221 30.9733 31.5243 30.1193 30.2957C27.5572 32.9105 25.7439 33.6922 22.4198 33.6922C18.4912 33.6922 15.4297 31.268 15.4297 26.4131C15.4297 22.6225 17.4861 20.0406 20.4094 18.7794C22.9453 17.6624 26.4863 17.4653 29.193 17.1567V16.5522C29.193 15.4419 29.2783 14.128 28.628 13.1689C28.0564 12.3083 26.9659 11.9535 26.0066 11.9535C24.2264 11.9535 22.6365 12.8666 22.2489 14.7586C22.17 15.1792 21.8613 15.5931 21.4409 15.6128L16.9078 15.1267C16.5268 15.0411 16.1064 14.7325 16.2115 14.1477C17.2561 8.65564 22.2159 7 26.6569 7C28.93 7 31.8994 7.60446 33.693 9.32574C35.9661 11.4476 35.7493 14.2791 35.7493 17.3602V24.6393C35.7493 26.827 36.6559 27.7861 37.5099 28.9687C37.812 29.3891 37.8778 29.8951 37.4967 30.2103C36.5441 31.0052 34.8492 32.4834 33.9164 33.3112L33.9032 33.2981" fill="black"/>
<path d="M38.9916 36.0645C24.4189 42.9999 15.3749 37.1972 9.58555 33.6728C9.2273 33.4507 8.61841 33.7248 9.14671 34.3316C11.0754 36.6702 17.3963 42.3069 25.6468 42.3069C33.903 42.3069 38.8147 37.802 39.4291 37.0161C40.0394 36.2369 39.6083 35.8071 38.9915 36.0645H38.9916ZM43.0844 33.8042C42.693 33.2946 40.7047 33.1997 39.4535 33.3534C38.2002 33.5026 36.3191 34.2686 36.4827 34.7284C36.5666 34.9007 36.7379 34.8234 37.5988 34.746C38.4621 34.6599 40.8805 34.3547 41.3844 35.0134C41.8907 35.6767 40.6131 38.8365 40.3797 39.3461C40.1543 39.8557 40.4659 39.9872 40.8893 39.6477C41.307 39.3085 42.0631 38.4298 42.5705 37.1864C43.0744 35.9363 43.3818 34.1923 43.0844 33.8042Z" fill="#FF9900"/>
<path fill-rule="evenodd" clip-rule="evenodd" d="M29.193 21.913C29.193 23.7327 29.239 25.2503 28.3192 26.8663C27.5768 28.1804 26.4009 28.9884 25.087 28.9884C23.2934 28.9884 22.2489 27.6219 22.2489 25.6051C22.2489 21.6238 25.8161 20.9013 29.193 20.9013V21.913ZM33.9034 33.2981C33.5945 33.5739 33.1478 33.5937 32.7997 33.4097C31.2493 32.1221 30.9733 31.5243 30.1193 30.2957C27.5572 32.9105 25.7439 33.6922 22.4198 33.6922C18.4912 33.6922 15.4297 31.268 15.4297 26.4131C15.4297 22.6225 17.4861 20.0406 20.4094 18.7794C22.9453 17.6624 26.4863 17.4653 29.193 17.1567V16.5522C29.193 15.4419 29.2783 14.128 28.628 13.1689C28.0564 12.3083 26.9659 11.9535 26.0066 11.9535C24.2264 11.9535 22.6365 12.8666 22.2489 14.7586C22.17 15.1792 21.8613 15.5931 21.4409 15.6128L16.9078 15.1267C16.5268 15.0411 16.1064 14.7325 16.2115 14.1477C17.2561 8.65564 22.2159 7 26.6569 7C28.93 7 31.8994 7.60446 33.693 9.32574C35.9661 11.4476 35.7493 14.2791 35.7493 17.3602V24.6393C35.7493 26.827 36.6559 27.7861 37.5099 28.9687C37.812 29.3891 37.8778 29.8951 37.4967 30.2103C36.5441 31.0052 34.8492 32.4834 33.9164 33.3112L33.9032 33.2981" fill="black"/>
</g>
<defs>
<clipPath id="clip0_46_91">
<rect width="36" height="36" fill="white" transform="translate(8 7)"/>
</clipPath>
</defs>
</svg>
