<svg width="175" height="50" viewBox="0 0 175 50" fill="none" xmlns="http://www.w3.org/2000/svg">
<rect x="0.5" y="0.5" width="174" height="49" rx="7.5" stroke="#8D8D8D"/>
<path d="M56.233 20V9.81818H57.4659V18.9062H62.1989V20H56.233ZM63.9489 20V12.3636H65.1222V20H63.9489ZM64.5455 11.0909C64.3168 11.0909 64.1196 11.013 63.9538 10.8572C63.7914 10.7015 63.7102 10.5142 63.7102 10.2955C63.7102 10.0767 63.7914 9.88944 63.9538 9.73366C64.1196 9.57789 64.3168 9.5 64.5455 9.5C64.7741 9.5 64.9697 9.57789 65.1321 9.73366C65.2978 9.88944 65.3807 10.0767 65.3807 10.2955C65.3807 10.5142 65.2978 10.7015 65.1321 10.8572C64.9697 11.013 64.7741 11.0909 64.5455 11.0909ZM72.6802 14.0739L71.6262 14.3722C71.56 14.1965 71.4622 14.0258 71.3329 13.8601C71.207 13.6911 71.0346 13.5518 70.8159 13.4425C70.5971 13.3331 70.3171 13.2784 69.9757 13.2784C69.5083 13.2784 69.1189 13.3861 68.8074 13.6016C68.4991 13.8137 68.345 14.0838 68.345 14.4119C68.345 14.7036 68.4511 14.9339 68.6632 15.103C68.8753 15.272 69.2067 15.4129 69.6575 15.5256L70.791 15.804C71.4738 15.9697 71.9825 16.2232 72.3173 16.5646C72.652 16.9027 72.8194 17.3385 72.8194 17.8722C72.8194 18.3097 72.6935 18.7008 72.4416 19.0455C72.193 19.3902 71.845 19.6619 71.3975 19.8608C70.9501 20.0597 70.4297 20.1591 69.8365 20.1591C69.0576 20.1591 68.4129 19.9901 67.9025 19.652C67.3921 19.3139 67.069 18.8201 66.9331 18.1705L68.0467 17.892C68.1528 18.303 68.3533 18.6113 68.6483 18.8168C68.9466 19.0223 69.336 19.125 69.8166 19.125C70.3635 19.125 70.7976 19.009 71.1191 18.777C71.444 18.5417 71.6064 18.2599 71.6064 17.9318C71.6064 17.6667 71.5136 17.4446 71.3279 17.2656C71.1423 17.0833 70.8573 16.9474 70.4728 16.858L69.2001 16.5597C68.5008 16.3939 67.987 16.1371 67.6589 15.7891C67.3341 15.4377 67.1717 14.9986 67.1717 14.4716C67.1717 14.0407 67.2927 13.6596 67.5346 13.3281C67.7799 12.9967 68.113 12.7365 68.5339 12.5476C68.9582 12.3587 69.4387 12.2642 69.9757 12.2642C70.7314 12.2642 71.3246 12.4299 71.7555 12.7614C72.1897 13.0928 72.4979 13.5303 72.6802 14.0739ZM77.9066 12.3636V13.358H73.9492V12.3636H77.9066ZM75.1026 10.5341H76.2759V17.8125C76.2759 18.1439 76.324 18.3925 76.4201 18.5582C76.5195 18.7206 76.6455 18.83 76.7979 18.8864C76.9537 18.9394 77.1178 18.9659 77.2901 18.9659C77.4194 18.9659 77.5255 18.9593 77.6083 18.946C77.6912 18.9295 77.7575 18.9162 77.8072 18.9062L78.0458 19.9602C77.9663 19.9901 77.8552 20.0199 77.7127 20.0497C77.5702 20.0829 77.3896 20.0994 77.1708 20.0994C76.8394 20.0994 76.5146 20.0282 76.1964 19.8857C75.8815 19.7431 75.6197 19.526 75.4109 19.2344C75.2054 18.9427 75.1026 18.5748 75.1026 18.1307V10.5341ZM82.7912 20.1591C82.0554 20.1591 81.4207 19.9967 80.8871 19.6719C80.3568 19.3438 79.9474 18.8864 79.6591 18.2997C79.3741 17.7098 79.2315 17.0237 79.2315 16.2415C79.2315 15.4593 79.3741 14.7699 79.6591 14.1733C79.9474 13.5734 80.3485 13.1061 80.8622 12.7713C81.3793 12.4332 81.9825 12.2642 82.6719 12.2642C83.0696 12.2642 83.4624 12.3305 83.8501 12.4631C84.2379 12.5956 84.5909 12.8111 84.9091 13.1094C85.2273 13.4044 85.4808 13.7955 85.6697 14.2827C85.8587 14.7699 85.9531 15.3698 85.9531 16.0824V16.5795H80.0668V15.5653H84.7599C84.7599 15.1345 84.6738 14.75 84.5014 14.4119C84.3324 14.0739 84.0904 13.8071 83.7756 13.6115C83.464 13.416 83.0961 13.3182 82.6719 13.3182C82.2045 13.3182 81.8002 13.4342 81.4588 13.6662C81.1207 13.8949 80.8606 14.1932 80.6783 14.5611C80.496 14.929 80.4048 15.3234 80.4048 15.7443V16.4205C80.4048 16.9972 80.5043 17.486 80.7031 17.8871C80.9053 18.2848 81.1854 18.5881 81.5433 18.7969C81.9013 19.0024 82.3172 19.1051 82.7912 19.1051C83.0994 19.1051 83.3778 19.062 83.6264 18.9759C83.8783 18.8864 84.0954 18.7538 84.2777 18.5781C84.46 18.3991 84.6009 18.1771 84.7003 17.9119L85.8338 18.2301C85.7145 18.6146 85.514 18.9527 85.2322 19.2443C84.9505 19.5327 84.6025 19.758 84.1882 19.9205C83.7739 20.0795 83.3082 20.1591 82.7912 20.1591ZM88.9112 15.4062V20H87.7379V12.3636H88.8714V13.5568H88.9709C89.1499 13.169 89.4216 12.8575 89.7862 12.6222C90.1508 12.3835 90.6214 12.2642 91.1982 12.2642C91.7152 12.2642 92.1676 12.3703 92.5554 12.5824C92.9432 12.7912 93.2448 13.1094 93.4602 13.5369C93.6757 13.9612 93.7834 14.4981 93.7834 15.1477V20H92.6101V15.2273C92.6101 14.6274 92.4543 14.16 92.1428 13.8253C91.8312 13.4872 91.4036 13.3182 90.8601 13.3182C90.4856 13.3182 90.1508 13.3994 89.8558 13.5618C89.5642 13.7242 89.3338 13.9612 89.1648 14.2727C88.9957 14.5843 88.9112 14.9621 88.9112 15.4062ZM102.967 20.1591C102.278 20.1591 101.673 19.995 101.153 19.6669C100.635 19.3388 100.231 18.8797 99.9395 18.2898C99.6511 17.6998 99.5069 17.0104 99.5069 16.2216C99.5069 15.4261 99.6511 14.7318 99.9395 14.1385C100.231 13.5452 100.635 13.0845 101.153 12.7564C101.673 12.4283 102.278 12.2642 102.967 12.2642C103.657 12.2642 104.26 12.4283 104.777 12.7564C105.297 13.0845 105.702 13.5452 105.99 14.1385C106.282 14.7318 106.427 15.4261 106.427 16.2216C106.427 17.0104 106.282 17.6998 105.99 18.2898C105.702 18.8797 105.297 19.3388 104.777 19.6669C104.26 19.995 103.657 20.1591 102.967 20.1591ZM102.967 19.1051C103.491 19.1051 103.922 18.9709 104.26 18.7024C104.598 18.4339 104.848 18.081 105.01 17.6435C105.173 17.206 105.254 16.732 105.254 16.2216C105.254 15.7112 105.173 15.2356 105.01 14.7947C104.848 14.3539 104.598 13.9976 104.26 13.7259C103.922 13.4541 103.491 13.3182 102.967 13.3182C102.443 13.3182 102.013 13.4541 101.675 13.7259C101.336 13.9976 101.086 14.3539 100.924 14.7947C100.761 15.2356 100.68 15.7112 100.68 16.2216C100.68 16.732 100.761 17.206 100.924 17.6435C101.086 18.081 101.336 18.4339 101.675 18.7024C102.013 18.9709 102.443 19.1051 102.967 19.1051ZM109.392 15.4062V20H108.218V12.3636H109.352V13.5568H109.451C109.63 13.169 109.902 12.8575 110.267 12.6222C110.631 12.3835 111.102 12.2642 111.679 12.2642C112.196 12.2642 112.648 12.3703 113.036 12.5824C113.424 12.7912 113.725 13.1094 113.941 13.5369C114.156 13.9612 114.264 14.4981 114.264 15.1477V20H113.091V15.2273C113.091 14.6274 112.935 14.16 112.623 13.8253C112.312 13.4872 111.884 13.3182 111.341 13.3182C110.966 13.3182 110.631 13.3994 110.336 13.5618C110.045 13.7242 109.814 13.9612 109.645 14.2727C109.476 14.5843 109.392 14.9621 109.392 15.4062Z" fill="#212121"/>
<path d="M60.6094 28.3516L57.3672 38H55.0938L59.3438 26.625H60.7969L60.6094 28.3516ZM63.3203 38L60.0625 28.3516L59.8672 26.625H61.3281L65.6016 38H63.3203ZM63.1719 33.7734V35.4688H57.0703V33.7734H63.1719ZM68.4766 31.1719V41.25H66.4062V29.5469H68.3203L68.4766 31.1719ZM73.9062 33.6875V33.8516C73.9062 34.4661 73.8333 35.0365 73.6875 35.5625C73.5469 36.0833 73.3385 36.5391 73.0625 36.9297C72.7865 37.3151 72.4427 37.6172 72.0312 37.8359C71.625 38.0495 71.1562 38.1562 70.625 38.1562C70.1042 38.1562 69.651 38.0573 69.2656 37.8594C68.8802 37.6562 68.5547 37.3698 68.2891 37C68.0234 36.6302 67.8099 36.2005 67.6484 35.7109C67.4922 35.2161 67.375 34.6771 67.2969 34.0938V33.5703C67.375 32.9505 67.4922 32.388 67.6484 31.8828C67.8099 31.3724 68.0234 30.9323 68.2891 30.5625C68.5547 30.1875 68.8776 29.8984 69.2578 29.6953C69.6432 29.4922 70.0938 29.3906 70.6094 29.3906C71.1458 29.3906 71.6172 29.4922 72.0234 29.6953C72.4349 29.8984 72.7812 30.1901 73.0625 30.5703C73.3438 30.9505 73.5547 31.4036 73.6953 31.9297C73.8359 32.4557 73.9062 33.0417 73.9062 33.6875ZM71.8359 33.8516V33.6875C71.8359 33.3125 71.8021 32.9661 71.7344 32.6484C71.6667 32.3255 71.5625 32.0443 71.4219 31.8047C71.2812 31.5599 71.099 31.3698 70.875 31.2344C70.651 31.099 70.3802 31.0312 70.0625 31.0312C69.7448 31.0312 69.4714 31.0833 69.2422 31.1875C69.013 31.2917 68.8255 31.4401 68.6797 31.6328C68.5339 31.8255 68.4193 32.0547 68.3359 32.3203C68.2578 32.5807 68.2057 32.8698 68.1797 33.1875V34.4844C68.2266 34.8698 68.3177 35.2161 68.4531 35.5234C68.5885 35.8307 68.7865 36.0755 69.0469 36.2578C69.3125 36.4401 69.6562 36.5312 70.0781 36.5312C70.3958 36.5312 70.6667 36.4609 70.8906 36.3203C71.1146 36.1797 71.2969 35.987 71.4375 35.7422C71.5781 35.4922 71.6797 35.2057 71.7422 34.8828C71.8047 34.5599 71.8359 34.2161 71.8359 33.8516ZM77.4766 31.1719V41.25H75.4062V29.5469H77.3203L77.4766 31.1719ZM82.9062 33.6875V33.8516C82.9062 34.4661 82.8333 35.0365 82.6875 35.5625C82.5469 36.0833 82.3385 36.5391 82.0625 36.9297C81.7865 37.3151 81.4427 37.6172 81.0312 37.8359C80.625 38.0495 80.1562 38.1562 79.625 38.1562C79.1042 38.1562 78.651 38.0573 78.2656 37.8594C77.8802 37.6562 77.5547 37.3698 77.2891 37C77.0234 36.6302 76.8099 36.2005 76.6484 35.7109C76.4922 35.2161 76.375 34.6771 76.2969 34.0938V33.5703C76.375 32.9505 76.4922 32.388 76.6484 31.8828C76.8099 31.3724 77.0234 30.9323 77.2891 30.5625C77.5547 30.1875 77.8776 29.8984 78.2578 29.6953C78.6432 29.4922 79.0938 29.3906 79.6094 29.3906C80.1458 29.3906 80.6172 29.4922 81.0234 29.6953C81.4349 29.8984 81.7812 30.1901 82.0625 30.5703C82.3438 30.9505 82.5547 31.4036 82.6953 31.9297C82.8359 32.4557 82.9062 33.0417 82.9062 33.6875ZM80.8359 33.8516V33.6875C80.8359 33.3125 80.8021 32.9661 80.7344 32.6484C80.6667 32.3255 80.5625 32.0443 80.4219 31.8047C80.2812 31.5599 80.099 31.3698 79.875 31.2344C79.651 31.099 79.3802 31.0312 79.0625 31.0312C78.7448 31.0312 78.4714 31.0833 78.2422 31.1875C78.013 31.2917 77.8255 31.4401 77.6797 31.6328C77.5339 31.8255 77.4193 32.0547 77.3359 32.3203C77.2578 32.5807 77.2057 32.8698 77.1797 33.1875V34.4844C77.2266 34.8698 77.3177 35.2161 77.4531 35.5234C77.5885 35.8307 77.7865 36.0755 78.0469 36.2578C78.3125 36.4401 78.6562 36.5312 79.0781 36.5312C79.3958 36.5312 79.6667 36.4609 79.8906 36.3203C80.1146 36.1797 80.2969 35.987 80.4375 35.7422C80.5781 35.4922 80.6797 35.2057 80.7422 34.8828C80.8047 34.5599 80.8359 34.2161 80.8359 33.8516ZM86.6016 26V38H84.5312V26H86.6016ZM92.3672 38.1562C91.7266 38.1562 91.151 38.0521 90.6406 37.8438C90.1302 37.6354 89.6953 37.3464 89.3359 36.9766C88.9818 36.6016 88.7083 36.1667 88.5156 35.6719C88.3281 35.1719 88.2344 34.6354 88.2344 34.0625V33.75C88.2344 33.099 88.3281 32.5078 88.5156 31.9766C88.7031 31.4401 88.9688 30.9792 89.3125 30.5938C89.6562 30.2083 90.0677 29.9115 90.5469 29.7031C91.026 29.4948 91.5547 29.3906 92.1328 29.3906C92.7318 29.3906 93.2604 29.4922 93.7188 29.6953C94.1771 29.8932 94.5599 30.1745 94.8672 30.5391C95.1745 30.9036 95.4062 31.3411 95.5625 31.8516C95.7188 32.3568 95.7969 32.9167 95.7969 33.5312V34.3984H89.1719V32.9766H93.7656V32.8203C93.7552 32.4922 93.6927 32.1927 93.5781 31.9219C93.4635 31.6458 93.2865 31.4271 93.0469 31.2656C92.8073 31.099 92.4974 31.0156 92.1172 31.0156C91.8099 31.0156 91.5417 31.0833 91.3125 31.2188C91.0885 31.349 90.901 31.5365 90.75 31.7812C90.6042 32.0208 90.4948 32.3073 90.4219 32.6406C90.349 32.974 90.3125 33.3438 90.3125 33.75V34.0625C90.3125 34.4167 90.3594 34.7448 90.4531 35.0469C90.5521 35.349 90.6953 35.612 90.8828 35.8359C91.0755 36.0547 91.3047 36.2266 91.5703 36.3516C91.8411 36.4714 92.1484 36.5312 92.4922 36.5312C92.9245 36.5312 93.3151 36.4479 93.6641 36.2812C94.0182 36.1094 94.3255 35.8568 94.5859 35.5234L95.625 36.6016C95.4479 36.862 95.2083 37.112 94.9062 37.3516C94.6094 37.5911 94.25 37.7865 93.8281 37.9375C93.4062 38.0833 92.9193 38.1562 92.3672 38.1562ZM105.695 33.8516H102.766V32.1641H105.695C106.174 32.1641 106.562 32.0859 106.859 31.9297C107.161 31.7682 107.383 31.5495 107.523 31.2734C107.664 30.9922 107.734 30.6719 107.734 30.3125C107.734 29.9635 107.664 29.638 107.523 29.3359C107.383 29.0339 107.161 28.7891 106.859 28.6016C106.562 28.4141 106.174 28.3203 105.695 28.3203H103.469V38H101.32V26.625H105.695C106.581 26.625 107.336 26.7839 107.961 27.1016C108.591 27.4141 109.07 27.849 109.398 28.4062C109.732 28.9583 109.898 29.5885 109.898 30.2969C109.898 31.0312 109.732 31.6641 109.398 32.1953C109.07 32.7266 108.591 33.1354 107.961 33.4219C107.336 33.7083 106.581 33.8516 105.695 33.8516ZM110.953 33.8594V33.6953C110.953 33.0755 111.042 32.5052 111.219 31.9844C111.396 31.4583 111.654 31.0026 111.992 30.6172C112.331 30.2318 112.745 29.9323 113.234 29.7188C113.724 29.5 114.281 29.3906 114.906 29.3906C115.542 29.3906 116.104 29.5 116.594 29.7188C117.089 29.9323 117.505 30.2318 117.844 30.6172C118.182 31.0026 118.44 31.4583 118.617 31.9844C118.794 32.5052 118.883 33.0755 118.883 33.6953V33.8594C118.883 34.474 118.794 35.0443 118.617 35.5703C118.44 36.0911 118.182 36.5469 117.844 36.9375C117.505 37.3229 117.091 37.6224 116.602 37.8359C116.112 38.0495 115.552 38.1562 114.922 38.1562C114.297 38.1562 113.737 38.0495 113.242 37.8359C112.747 37.6224 112.331 37.3229 111.992 36.9375C111.654 36.5469 111.396 36.0911 111.219 35.5703C111.042 35.0443 110.953 34.474 110.953 33.8594ZM113.016 33.6953V33.8594C113.016 34.2292 113.052 34.5755 113.125 34.8984C113.198 35.2214 113.31 35.5052 113.461 35.75C113.612 35.9948 113.807 36.1875 114.047 36.3281C114.292 36.4635 114.583 36.5312 114.922 36.5312C115.255 36.5312 115.542 36.4635 115.781 36.3281C116.021 36.1875 116.216 35.9948 116.367 35.75C116.523 35.5052 116.638 35.2214 116.711 34.8984C116.784 34.5755 116.82 34.2292 116.82 33.8594V33.6953C116.82 33.3307 116.784 32.9896 116.711 32.6719C116.638 32.349 116.523 32.0651 116.367 31.8203C116.216 31.5703 116.018 31.375 115.773 31.2344C115.534 31.0885 115.245 31.0156 114.906 31.0156C114.573 31.0156 114.286 31.0885 114.047 31.2344C113.807 31.375 113.612 31.5703 113.461 31.8203C113.31 32.0651 113.198 32.349 113.125 32.6719C113.052 32.9896 113.016 33.3307 113.016 33.6953ZM125.453 36.2031V26H127.531V38H125.656L125.453 36.2031ZM120.023 33.875V33.7109C120.023 33.0651 120.096 32.4792 120.242 31.9531C120.393 31.4219 120.612 30.9661 120.898 30.5859C121.185 30.2057 121.531 29.9115 121.938 29.7031C122.349 29.4948 122.815 29.3906 123.336 29.3906C123.841 29.3906 124.281 29.4922 124.656 29.6953C125.036 29.8984 125.359 30.1875 125.625 30.5625C125.896 30.9375 126.112 31.3828 126.273 31.8984C126.435 32.4089 126.552 32.9714 126.625 33.5859V34.0312C126.552 34.6302 126.435 35.1797 126.273 35.6797C126.112 36.1797 125.896 36.6172 125.625 36.9922C125.359 37.362 125.036 37.6484 124.656 37.8516C124.276 38.0547 123.831 38.1562 123.32 38.1562C122.805 38.1562 122.341 38.0495 121.93 37.8359C121.523 37.6224 121.177 37.3229 120.891 36.9375C120.609 36.5521 120.393 36.099 120.242 35.5781C120.096 35.0573 120.023 34.4896 120.023 33.875ZM122.094 33.7109V33.875C122.094 34.2396 122.125 34.5807 122.188 34.8984C122.25 35.2161 122.352 35.4974 122.492 35.7422C122.633 35.9818 122.812 36.1693 123.031 36.3047C123.255 36.4401 123.526 36.5078 123.844 36.5078C124.25 36.5078 124.583 36.4193 124.844 36.2422C125.109 36.0599 125.315 35.8125 125.461 35.5C125.607 35.1823 125.701 34.8255 125.742 34.4297V33.2031C125.721 32.8906 125.667 32.6016 125.578 32.3359C125.495 32.0703 125.375 31.8411 125.219 31.6484C125.068 31.4557 124.88 31.3047 124.656 31.1953C124.432 31.0859 124.167 31.0312 123.859 31.0312C123.542 31.0312 123.271 31.1016 123.047 31.2422C122.823 31.3776 122.641 31.5677 122.5 31.8125C122.359 32.0573 122.255 32.3411 122.188 32.6641C122.125 32.987 122.094 33.3359 122.094 33.7109ZM132.867 36.5312C133.159 36.5312 133.419 36.474 133.648 36.3594C133.878 36.2448 134.06 36.0833 134.195 35.875C134.336 35.6667 134.411 35.4245 134.422 35.1484H136.367C136.357 35.7214 136.195 36.2344 135.883 36.6875C135.57 37.1406 135.154 37.5 134.633 37.7656C134.117 38.026 133.539 38.1562 132.898 38.1562C132.247 38.1562 131.68 38.0469 131.195 37.8281C130.711 37.6094 130.307 37.3047 129.984 36.9141C129.667 36.5234 129.427 36.0703 129.266 35.5547C129.109 35.0391 129.031 34.487 129.031 33.8984V33.6484C129.031 33.0599 129.109 32.5078 129.266 31.9922C129.427 31.4766 129.667 31.0234 129.984 30.6328C130.307 30.2422 130.711 29.9375 131.195 29.7188C131.68 29.5 132.245 29.3906 132.891 29.3906C133.573 29.3906 134.172 29.5234 134.688 29.7891C135.208 30.0547 135.615 30.4297 135.906 30.9141C136.203 31.3984 136.357 31.9688 136.367 32.625H134.422C134.411 32.3229 134.344 32.0521 134.219 31.8125C134.094 31.5729 133.917 31.3802 133.688 31.2344C133.458 31.0885 133.18 31.0156 132.852 31.0156C132.503 31.0156 132.211 31.0885 131.977 31.2344C131.747 31.3802 131.568 31.5807 131.438 31.8359C131.312 32.0859 131.224 32.3672 131.172 32.6797C131.125 32.987 131.102 33.3099 131.102 33.6484V33.8984C131.102 34.2422 131.125 34.5703 131.172 34.8828C131.224 35.1953 131.312 35.4766 131.438 35.7266C131.568 35.9714 131.747 36.1667 131.977 36.3125C132.211 36.4583 132.508 36.5312 132.867 36.5312ZM142.398 36.2031V32.3047C142.398 32.0182 142.349 31.7708 142.25 31.5625C142.151 31.3542 142 31.1927 141.797 31.0781C141.594 30.9635 141.336 30.9062 141.023 30.9062C140.747 30.9062 140.505 30.9531 140.297 31.0469C140.094 31.1406 139.938 31.2734 139.828 31.4453C139.719 31.612 139.664 31.8047 139.664 32.0234H137.594C137.594 31.6745 137.677 31.3438 137.844 31.0312C138.01 30.7135 138.247 30.4323 138.555 30.1875C138.867 29.9375 139.24 29.7422 139.672 29.6016C140.109 29.4609 140.599 29.3906 141.141 29.3906C141.781 29.3906 142.352 29.5 142.852 29.7188C143.357 29.9323 143.753 30.2552 144.039 30.6875C144.331 31.1198 144.477 31.6641 144.477 32.3203V36.0078C144.477 36.4297 144.503 36.7917 144.555 37.0938C144.612 37.3906 144.695 37.6484 144.805 37.8672V38H142.703C142.604 37.7865 142.529 37.5156 142.477 37.1875C142.424 36.8542 142.398 36.526 142.398 36.2031ZM142.688 32.8516L142.703 34.0781H141.398C141.076 34.0781 140.792 34.112 140.547 34.1797C140.302 34.2422 140.102 34.3359 139.945 34.4609C139.789 34.5807 139.672 34.7266 139.594 34.8984C139.516 35.0651 139.477 35.2552 139.477 35.4688C139.477 35.6771 139.523 35.8646 139.617 36.0312C139.716 36.1979 139.857 36.3307 140.039 36.4297C140.227 36.5234 140.445 36.5703 140.695 36.5703C141.06 36.5703 141.378 36.4974 141.648 36.3516C141.919 36.2005 142.13 36.0182 142.281 35.8047C142.432 35.5911 142.513 35.388 142.523 35.1953L143.117 36.0859C143.044 36.2995 142.935 36.526 142.789 36.7656C142.643 37.0052 142.456 37.2292 142.227 37.4375C141.997 37.6458 141.721 37.8177 141.398 37.9531C141.076 38.0885 140.701 38.1562 140.273 38.1562C139.727 38.1562 139.237 38.0469 138.805 37.8281C138.372 37.6094 138.031 37.3099 137.781 36.9297C137.531 36.5495 137.406 36.1172 137.406 35.6328C137.406 35.1849 137.49 34.7891 137.656 34.4453C137.823 34.1016 138.07 33.8125 138.398 33.5781C138.727 33.3385 139.133 33.1589 139.617 33.0391C140.107 32.9141 140.667 32.8516 141.297 32.8516H142.688ZM150.984 35.6875C150.984 35.5104 150.938 35.3516 150.844 35.2109C150.75 35.0703 150.573 34.9427 150.312 34.8281C150.057 34.7083 149.682 34.5964 149.188 34.4922C148.75 34.3984 148.346 34.2812 147.977 34.1406C147.607 34 147.289 33.8307 147.023 33.6328C146.758 33.4297 146.549 33.1927 146.398 32.9219C146.253 32.6458 146.18 32.3281 146.18 31.9688C146.18 31.6198 146.255 31.2917 146.406 30.9844C146.557 30.6719 146.776 30.3984 147.062 30.1641C147.349 29.9245 147.698 29.737 148.109 29.6016C148.521 29.4609 148.984 29.3906 149.5 29.3906C150.219 29.3906 150.836 29.5078 151.352 29.7422C151.872 29.9766 152.271 30.2995 152.547 30.7109C152.823 31.1172 152.961 31.5755 152.961 32.0859H150.898C150.898 31.862 150.846 31.6589 150.742 31.4766C150.643 31.2943 150.49 31.1484 150.281 31.0391C150.073 30.9245 149.81 30.8672 149.492 30.8672C149.206 30.8672 148.964 30.9141 148.766 31.0078C148.573 31.1016 148.427 31.224 148.328 31.375C148.229 31.526 148.18 31.6927 148.18 31.875C148.18 32.0104 148.206 32.1328 148.258 32.2422C148.315 32.3464 148.406 32.4427 148.531 32.5312C148.656 32.6198 148.826 32.7005 149.039 32.7734C149.258 32.8464 149.526 32.9167 149.844 32.9844C150.474 33.1094 151.023 33.276 151.492 33.4844C151.966 33.6875 152.336 33.9583 152.602 34.2969C152.867 34.6354 153 35.0677 153 35.5938C153 35.9688 152.919 36.3125 152.758 36.625C152.596 36.9323 152.362 37.2005 152.055 37.4297C151.747 37.6589 151.38 37.8385 150.953 37.9688C150.526 38.0938 150.044 38.1562 149.508 38.1562C148.732 38.1562 148.076 38.0182 147.539 37.7422C147.003 37.4609 146.596 37.1068 146.32 36.6797C146.044 36.2474 145.906 35.7995 145.906 35.3359H147.883C147.898 35.6641 147.987 35.9271 148.148 36.125C148.31 36.3229 148.513 36.4661 148.758 36.5547C149.008 36.638 149.271 36.6797 149.547 36.6797C149.859 36.6797 150.122 36.638 150.336 36.5547C150.549 36.4661 150.711 36.349 150.82 36.2031C150.93 36.0521 150.984 35.8802 150.984 35.6875ZM158.57 29.5469V31.0312H153.727V29.5469H158.57ZM155.023 27.4688H157.094V35.5625C157.094 35.8125 157.128 36.0052 157.195 36.1406C157.263 36.276 157.365 36.3672 157.5 36.4141C157.635 36.4609 157.797 36.4844 157.984 36.4844C158.12 36.4844 158.245 36.4766 158.359 36.4609C158.474 36.4453 158.57 36.4297 158.648 36.4141L158.656 37.9609C158.484 38.0182 158.289 38.0651 158.07 38.1016C157.857 38.138 157.615 38.1562 157.344 38.1562C156.88 38.1562 156.474 38.0781 156.125 37.9219C155.776 37.7604 155.505 37.5026 155.312 37.1484C155.12 36.7891 155.023 36.3151 155.023 35.7266V27.4688ZM164.594 35.6875C164.594 35.5104 164.547 35.3516 164.453 35.2109C164.359 35.0703 164.182 34.9427 163.922 34.8281C163.667 34.7083 163.292 34.5964 162.797 34.4922C162.359 34.3984 161.956 34.2812 161.586 34.1406C161.216 34 160.898 33.8307 160.633 33.6328C160.367 33.4297 160.159 33.1927 160.008 32.9219C159.862 32.6458 159.789 32.3281 159.789 31.9688C159.789 31.6198 159.865 31.2917 160.016 30.9844C160.167 30.6719 160.385 30.3984 160.672 30.1641C160.958 29.9245 161.307 29.737 161.719 29.6016C162.13 29.4609 162.594 29.3906 163.109 29.3906C163.828 29.3906 164.445 29.5078 164.961 29.7422C165.482 29.9766 165.88 30.2995 166.156 30.7109C166.432 31.1172 166.57 31.5755 166.57 32.0859H164.508C164.508 31.862 164.456 31.6589 164.352 31.4766C164.253 31.2943 164.099 31.1484 163.891 31.0391C163.682 30.9245 163.419 30.8672 163.102 30.8672C162.815 30.8672 162.573 30.9141 162.375 31.0078C162.182 31.1016 162.036 31.224 161.938 31.375C161.839 31.526 161.789 31.6927 161.789 31.875C161.789 32.0104 161.815 32.1328 161.867 32.2422C161.924 32.3464 162.016 32.4427 162.141 32.5312C162.266 32.6198 162.435 32.7005 162.648 32.7734C162.867 32.8464 163.135 32.9167 163.453 32.9844C164.083 33.1094 164.633 33.276 165.102 33.4844C165.576 33.6875 165.945 33.9583 166.211 34.2969C166.477 34.6354 166.609 35.0677 166.609 35.5938C166.609 35.9688 166.529 36.3125 166.367 36.625C166.206 36.9323 165.971 37.2005 165.664 37.4297C165.357 37.6589 164.99 37.8385 164.562 37.9688C164.135 38.0938 163.654 38.1562 163.117 38.1562C162.341 38.1562 161.685 38.0182 161.148 37.7422C160.612 37.4609 160.206 37.1068 159.93 36.6797C159.654 36.2474 159.516 35.7995 159.516 35.3359H161.492C161.508 35.6641 161.596 35.9271 161.758 36.125C161.919 36.3229 162.122 36.4661 162.367 36.5547C162.617 36.638 162.88 36.6797 163.156 36.6797C163.469 36.6797 163.732 36.638 163.945 36.5547C164.159 36.4661 164.32 36.349 164.43 36.2031C164.539 36.0521 164.594 35.8802 164.594 35.6875Z" fill="#212121"/>
<g clip-path="url(#clip0_46_92)">
<path fill-rule="evenodd" clip-rule="evenodd" d="M43.292 38.2C42.944 39.088 42.14 40.336 40.988 41.224C40.328 41.728 39.536 42.22 38.456 42.544C37.304 42.892 35.876 43 34.1 43H17.9C16.124 43 14.708 42.88 13.544 42.544C12.464 42.22 11.672 41.74 11.012 41.224C9.872 40.348 9.056 39.088 8.708 38.2C8.012 36.412 8 34.384 8 33.1V16.9C8 15.616 8.012 13.588 8.708 11.8C9.056 10.912 9.86 9.664 11.012 8.776C11.672 8.272 12.464 7.78 13.544 7.456C14.708 7.12 16.124 7 17.9 7H34.1C35.876 7 37.292 7.12 38.456 7.456C39.536 7.78 40.328 8.26 40.988 8.776C42.128 9.652 42.944 10.912 43.292 11.8C44 13.588 44 15.628 44 16.9V33.1C44 34.384 43.988 36.412 43.292 38.2Z" fill="url(#paint0_linear_46_92)"/>
<path d="M29.0838 28.7319C29.0358 28.2999 28.8918 27.9879 28.6038 27.6999C28.0638 27.1359 27.1158 26.7639 25.9998 26.7639C24.8838 26.7639 23.9358 27.1239 23.3958 27.6999C23.1198 27.9999 22.9638 28.2999 22.9158 28.7319C22.8198 29.5719 22.8798 30.2919 22.9758 31.4559C23.0718 32.5599 23.2518 34.0359 23.4798 35.5239C23.6478 36.5919 23.7798 37.1679 23.8998 37.5759C24.1038 38.2479 24.8358 38.8239 25.9998 38.8239C27.1638 38.8239 27.9078 38.2359 28.0998 37.5759C28.2198 37.1679 28.3518 36.5919 28.5198 35.5239C28.7478 34.0239 28.9278 32.5599 29.0238 31.4559C29.1318 30.2919 29.1798 29.5719 29.0838 28.7319Z" fill="white"/>
<path d="M28.9519 22.6119C28.9519 24.2439 27.6319 25.5639 25.9999 25.5639C24.3679 25.5639 23.0479 24.2439 23.0479 22.6119C23.0479 20.9799 24.3679 19.6599 25.9999 19.6599C27.6319 19.6599 28.9519 20.9919 28.9519 22.6119Z" fill="white"/>
<path d="M25.9639 10.9839C19.0759 11.0079 13.4359 16.5999 13.3399 23.4879C13.2679 29.0679 16.8319 33.8439 21.8119 35.5959C21.9319 35.6439 22.0519 35.5359 22.0399 35.4159C21.9799 34.9839 21.9079 34.5519 21.8599 34.1199C21.8359 33.9639 21.7399 33.8439 21.6079 33.7719C17.6719 32.0559 14.9239 28.1079 14.9719 23.5359C15.0319 17.5359 19.9279 12.6519 25.9159 12.6039C32.0479 12.5559 37.0519 17.5239 37.0519 23.6439C37.0519 28.1679 34.3159 32.0559 30.4159 33.7719C30.2719 33.8319 30.1759 33.9639 30.1639 34.1199C30.1039 34.5519 30.0439 34.9839 29.9839 35.4159C29.9599 35.5479 30.0919 35.6439 30.2119 35.5959C35.1439 33.8679 38.6839 29.1639 38.6839 23.6439C38.6599 16.6599 32.9599 10.9719 25.9639 10.9839Z" fill="white"/>
<path d="M25.676 15.1838C21.188 15.3518 17.588 19.0598 17.528 23.5478C17.492 26.4998 18.968 29.1158 21.236 30.6638C21.344 30.7358 21.5 30.6518 21.5 30.5198C21.464 30.0038 21.464 29.5478 21.488 29.0678C21.5 28.9118 21.44 28.7678 21.32 28.6598C19.94 27.3638 19.1 25.5158 19.148 23.4758C19.244 19.8758 22.136 16.9478 25.736 16.8038C29.648 16.6478 32.864 19.7918 32.864 23.6558C32.864 25.6238 32.024 27.3998 30.692 28.6598C30.584 28.7678 30.524 28.9118 30.524 29.0678C30.548 29.5358 30.536 29.9918 30.512 30.5078C30.5 30.6398 30.656 30.7358 30.776 30.6518C33.008 29.1278 34.484 26.5478 34.484 23.6438C34.496 18.8678 30.5 14.9918 25.676 15.1838Z" fill="white"/>
</g>
<defs>
<linearGradient id="paint0_linear_46_92" x1="26" y1="7" x2="26" y2="43" gradientUnits="userSpaceOnUse">
<stop stop-color="#F452FF"/>
<stop offset="1" stop-color="#832BC1"/>
</linearGradient>
<clipPath id="clip0_46_92">
<rect width="36" height="36" fill="white" transform="translate(8 7)"/>
</clipPath>
</defs>
</svg>
