<svg width="175" height="50" viewBox="0 0 175 50" fill="none" xmlns="http://www.w3.org/2000/svg">
<rect x="0.5" y="0.5" width="174" height="49" rx="7.5" stroke="#8D8D8D"/>
<path d="M56.233 20V9.81818H57.4659V18.9062H62.1989V20H56.233ZM63.9489 20V12.3636H65.1222V20H63.9489ZM64.5455 11.0909C64.3168 11.0909 64.1196 11.013 63.9538 10.8572C63.7914 10.7015 63.7102 10.5142 63.7102 10.2955C63.7102 10.0767 63.7914 9.88944 63.9538 9.73366C64.1196 9.57789 64.3168 9.5 64.5455 9.5C64.7741 9.5 64.9697 9.57789 65.1321 9.73366C65.2978 9.88944 65.3807 10.0767 65.3807 10.2955C65.3807 10.5142 65.2978 10.7015 65.1321 10.8572C64.9697 11.013 64.7741 11.0909 64.5455 11.0909ZM72.6802 14.0739L71.6262 14.3722C71.56 14.1965 71.4622 14.0258 71.3329 13.8601C71.207 13.6911 71.0346 13.5518 70.8159 13.4425C70.5971 13.3331 70.3171 13.2784 69.9757 13.2784C69.5083 13.2784 69.1189 13.3861 68.8074 13.6016C68.4991 13.8137 68.345 14.0838 68.345 14.4119C68.345 14.7036 68.4511 14.9339 68.6632 15.103C68.8753 15.272 69.2067 15.4129 69.6575 15.5256L70.791 15.804C71.4738 15.9697 71.9825 16.2232 72.3173 16.5646C72.652 16.9027 72.8194 17.3385 72.8194 17.8722C72.8194 18.3097 72.6935 18.7008 72.4416 19.0455C72.193 19.3902 71.845 19.6619 71.3975 19.8608C70.9501 20.0597 70.4297 20.1591 69.8365 20.1591C69.0576 20.1591 68.4129 19.9901 67.9025 19.652C67.3921 19.3139 67.069 18.8201 66.9331 18.1705L68.0467 17.892C68.1528 18.303 68.3533 18.6113 68.6483 18.8168C68.9466 19.0223 69.336 19.125 69.8166 19.125C70.3635 19.125 70.7976 19.009 71.1191 18.777C71.444 18.5417 71.6064 18.2599 71.6064 17.9318C71.6064 17.6667 71.5136 17.4446 71.3279 17.2656C71.1423 17.0833 70.8573 16.9474 70.4728 16.858L69.2001 16.5597C68.5008 16.3939 67.987 16.1371 67.6589 15.7891C67.3341 15.4377 67.1717 14.9986 67.1717 14.4716C67.1717 14.0407 67.2927 13.6596 67.5346 13.3281C67.7799 12.9967 68.113 12.7365 68.5339 12.5476C68.9582 12.3587 69.4387 12.2642 69.9757 12.2642C70.7314 12.2642 71.3246 12.4299 71.7555 12.7614C72.1897 13.0928 72.4979 13.5303 72.6802 14.0739ZM77.9066 12.3636V13.358H73.9492V12.3636H77.9066ZM75.1026 10.5341H76.2759V17.8125C76.2759 18.1439 76.324 18.3925 76.4201 18.5582C76.5195 18.7206 76.6455 18.83 76.7979 18.8864C76.9537 18.9394 77.1178 18.9659 77.2901 18.9659C77.4194 18.9659 77.5255 18.9593 77.6083 18.946C77.6912 18.9295 77.7575 18.9162 77.8072 18.9062L78.0458 19.9602C77.9663 19.9901 77.8552 20.0199 77.7127 20.0497C77.5702 20.0829 77.3896 20.0994 77.1708 20.0994C76.8394 20.0994 76.5146 20.0282 76.1964 19.8857C75.8815 19.7431 75.6197 19.526 75.4109 19.2344C75.2054 18.9427 75.1026 18.5748 75.1026 18.1307V10.5341ZM82.7912 20.1591C82.0554 20.1591 81.4207 19.9967 80.8871 19.6719C80.3568 19.3438 79.9474 18.8864 79.6591 18.2997C79.3741 17.7098 79.2315 17.0237 79.2315 16.2415C79.2315 15.4593 79.3741 14.7699 79.6591 14.1733C79.9474 13.5734 80.3485 13.1061 80.8622 12.7713C81.3793 12.4332 81.9825 12.2642 82.6719 12.2642C83.0696 12.2642 83.4624 12.3305 83.8501 12.4631C84.2379 12.5956 84.5909 12.8111 84.9091 13.1094C85.2273 13.4044 85.4808 13.7955 85.6697 14.2827C85.8587 14.7699 85.9531 15.3698 85.9531 16.0824V16.5795H80.0668V15.5653H84.7599C84.7599 15.1345 84.6738 14.75 84.5014 14.4119C84.3324 14.0739 84.0904 13.8071 83.7756 13.6115C83.464 13.416 83.0961 13.3182 82.6719 13.3182C82.2045 13.3182 81.8002 13.4342 81.4588 13.6662C81.1207 13.8949 80.8606 14.1932 80.6783 14.5611C80.496 14.929 80.4048 15.3234 80.4048 15.7443V16.4205C80.4048 16.9972 80.5043 17.486 80.7031 17.8871C80.9053 18.2848 81.1854 18.5881 81.5433 18.7969C81.9013 19.0024 82.3172 19.1051 82.7912 19.1051C83.0994 19.1051 83.3778 19.062 83.6264 18.9759C83.8783 18.8864 84.0954 18.7538 84.2777 18.5781C84.46 18.3991 84.6009 18.1771 84.7003 17.9119L85.8338 18.2301C85.7145 18.6146 85.514 18.9527 85.2322 19.2443C84.9505 19.5327 84.6025 19.758 84.1882 19.9205C83.7739 20.0795 83.3082 20.1591 82.7912 20.1591ZM88.9112 15.4062V20H87.7379V12.3636H88.8714V13.5568H88.9709C89.1499 13.169 89.4216 12.8575 89.7862 12.6222C90.1508 12.3835 90.6214 12.2642 91.1982 12.2642C91.7152 12.2642 92.1676 12.3703 92.5554 12.5824C92.9432 12.7912 93.2448 13.1094 93.4602 13.5369C93.6757 13.9612 93.7834 14.4981 93.7834 15.1477V20H92.6101V15.2273C92.6101 14.6274 92.4543 14.16 92.1428 13.8253C91.8312 13.4872 91.4036 13.3182 90.8601 13.3182C90.4856 13.3182 90.1508 13.3994 89.8558 13.5618C89.5642 13.7242 89.3338 13.9612 89.1648 14.2727C88.9957 14.5843 88.9112 14.9621 88.9112 15.4062ZM102.967 20.1591C102.278 20.1591 101.673 19.995 101.153 19.6669C100.635 19.3388 100.231 18.8797 99.9395 18.2898C99.6511 17.6998 99.5069 17.0104 99.5069 16.2216C99.5069 15.4261 99.6511 14.7318 99.9395 14.1385C100.231 13.5452 100.635 13.0845 101.153 12.7564C101.673 12.4283 102.278 12.2642 102.967 12.2642C103.657 12.2642 104.26 12.4283 104.777 12.7564C105.297 13.0845 105.702 13.5452 105.99 14.1385C106.282 14.7318 106.427 15.4261 106.427 16.2216C106.427 17.0104 106.282 17.6998 105.99 18.2898C105.702 18.8797 105.297 19.3388 104.777 19.6669C104.26 19.995 103.657 20.1591 102.967 20.1591ZM102.967 19.1051C103.491 19.1051 103.922 18.9709 104.26 18.7024C104.598 18.4339 104.848 18.081 105.01 17.6435C105.173 17.206 105.254 16.732 105.254 16.2216C105.254 15.7112 105.173 15.2356 105.01 14.7947C104.848 14.3539 104.598 13.9976 104.26 13.7259C103.922 13.4541 103.491 13.3182 102.967 13.3182C102.443 13.3182 102.013 13.4541 101.675 13.7259C101.336 13.9976 101.086 14.3539 100.924 14.7947C100.761 15.2356 100.68 15.7112 100.68 16.2216C100.68 16.732 100.761 17.206 100.924 17.6435C101.086 18.081 101.336 18.4339 101.675 18.7024C102.013 18.9709 102.443 19.1051 102.967 19.1051ZM109.392 15.4062V20H108.218V12.3636H109.352V13.5568H109.451C109.63 13.169 109.902 12.8575 110.267 12.6222C110.631 12.3835 111.102 12.2642 111.679 12.2642C112.196 12.2642 112.648 12.3703 113.036 12.5824C113.424 12.7912 113.725 13.1094 113.941 13.5369C114.156 13.9612 114.264 14.4981 114.264 15.1477V20H113.091V15.2273C113.091 14.6274 112.935 14.16 112.623 13.8253C112.312 13.4872 111.884 13.3182 111.341 13.3182C110.966 13.3182 110.631 13.3994 110.336 13.5618C110.045 13.7242 109.814 13.9612 109.645 14.2727C109.476 14.5843 109.392 14.9621 109.392 15.4062Z" fill="black"/>
<path d="M65.2969 32.0234V32.6094C65.2969 33.4688 65.1823 34.2422 64.9531 34.9297C64.724 35.612 64.3984 36.1927 63.9766 36.6719C63.5547 37.151 63.0521 37.5182 62.4688 37.7734C61.8854 38.0286 61.237 38.1562 60.5234 38.1562C59.8203 38.1562 59.1745 38.0286 58.5859 37.7734C58.0026 37.5182 57.4974 37.151 57.0703 36.6719C56.6432 36.1927 56.3125 35.612 56.0781 34.9297C55.8438 34.2422 55.7266 33.4688 55.7266 32.6094V32.0234C55.7266 31.1589 55.8438 30.3854 56.0781 29.7031C56.3125 29.0208 56.6406 28.4401 57.0625 27.9609C57.4844 27.4766 57.987 27.1068 58.5703 26.8516C59.1589 26.5964 59.8047 26.4688 60.5078 26.4688C61.2214 26.4688 61.8698 26.5964 62.4531 26.8516C63.0365 27.1068 63.5391 27.4766 63.9609 27.9609C64.388 28.4401 64.7161 29.0208 64.9453 29.7031C65.1797 30.3854 65.2969 31.1589 65.2969 32.0234ZM63.125 32.6094V32.0078C63.125 31.388 63.0677 30.8438 62.9531 30.375C62.8385 29.901 62.6693 29.5026 62.4453 29.1797C62.2214 28.8568 61.9453 28.6146 61.6172 28.4531C61.2891 28.2865 60.9193 28.2031 60.5078 28.2031C60.0911 28.2031 59.7214 28.2865 59.3984 28.4531C59.0807 28.6146 58.8099 28.8568 58.5859 29.1797C58.362 29.5026 58.1901 29.901 58.0703 30.375C57.9557 30.8438 57.8984 31.388 57.8984 32.0078V32.6094C57.8984 33.224 57.9557 33.7682 58.0703 34.2422C58.1901 34.7161 58.362 35.1172 58.5859 35.4453C58.8151 35.7682 59.0911 36.013 59.4141 36.1797C59.737 36.3464 60.1068 36.4297 60.5234 36.4297C60.9401 36.4297 61.3099 36.3464 61.6328 36.1797C61.9557 36.013 62.2266 35.7682 62.4453 35.4453C62.6693 35.1172 62.8385 34.7161 62.9531 34.2422C63.0677 33.7682 63.125 33.224 63.125 32.6094ZM69.7656 36.4375L71.7344 29.5469H73.8906L70.9922 38H69.6797L69.7656 36.4375ZM68.3281 29.5469L70.3203 36.4531L70.3906 38H69.0703L66.1641 29.5469H68.3281ZM78.6641 38.1562C78.0234 38.1562 77.4479 38.0521 76.9375 37.8438C76.4271 37.6354 75.9922 37.3464 75.6328 36.9766C75.2786 36.6016 75.0052 36.1667 74.8125 35.6719C74.625 35.1719 74.5312 34.6354 74.5312 34.0625V33.75C74.5312 33.099 74.625 32.5078 74.8125 31.9766C75 31.4401 75.2656 30.9792 75.6094 30.5938C75.9531 30.2083 76.3646 29.9115 76.8438 29.7031C77.3229 29.4948 77.8516 29.3906 78.4297 29.3906C79.0286 29.3906 79.5573 29.4922 80.0156 29.6953C80.474 29.8932 80.8568 30.1745 81.1641 30.5391C81.4714 30.9036 81.7031 31.3411 81.8594 31.8516C82.0156 32.3568 82.0938 32.9167 82.0938 33.5312V34.3984H75.4688V32.9766H80.0625V32.8203C80.0521 32.4922 79.9896 32.1927 79.875 31.9219C79.7604 31.6458 79.5833 31.4271 79.3438 31.2656C79.1042 31.099 78.7943 31.0156 78.4141 31.0156C78.1068 31.0156 77.8385 31.0833 77.6094 31.2188C77.3854 31.349 77.1979 31.5365 77.0469 31.7812C76.901 32.0208 76.7917 32.3073 76.7188 32.6406C76.6458 32.974 76.6094 33.3438 76.6094 33.75V34.0625C76.6094 34.4167 76.6562 34.7448 76.75 35.0469C76.849 35.349 76.9922 35.612 77.1797 35.8359C77.3724 36.0547 77.6016 36.2266 77.8672 36.3516C78.138 36.4714 78.4453 36.5312 78.7891 36.5312C79.2214 36.5312 79.612 36.4479 79.9609 36.2812C80.3151 36.1094 80.6224 35.8568 80.8828 35.5234L81.9219 36.6016C81.7448 36.862 81.5052 37.112 81.2031 37.3516C80.9062 37.5911 80.5469 37.7865 80.125 37.9375C79.7031 38.0833 79.2161 38.1562 78.6641 38.1562ZM85.5391 31.2734V38H83.4766V29.5469H85.4297L85.5391 31.2734ZM88.1094 29.4922L88.0781 31.4141C87.9635 31.3932 87.8333 31.3776 87.6875 31.3672C87.5469 31.3568 87.4141 31.3516 87.2891 31.3516C86.9714 31.3516 86.6927 31.3958 86.4531 31.4844C86.2135 31.5677 86.013 31.6901 85.8516 31.8516C85.6953 32.013 85.5755 32.2109 85.4922 32.4453C85.4089 32.6745 85.362 32.9349 85.3516 33.2266L84.9062 33.1719C84.9062 32.6354 84.9609 32.138 85.0703 31.6797C85.1797 31.2214 85.3385 30.8203 85.5469 30.4766C85.7552 30.1328 86.0156 29.8672 86.3281 29.6797C86.6458 29.487 87.0104 29.3906 87.4219 29.3906C87.5365 29.3906 87.6589 29.401 87.7891 29.4219C87.9245 29.4375 88.0312 29.4609 88.1094 29.4922ZM92.5547 36.5312C92.8464 36.5312 93.1068 36.474 93.3359 36.3594C93.5651 36.2448 93.7474 36.0833 93.8828 35.875C94.0234 35.6667 94.099 35.4245 94.1094 35.1484H96.0547C96.0443 35.7214 95.8828 36.2344 95.5703 36.6875C95.2578 37.1406 94.8411 37.5 94.3203 37.7656C93.8047 38.026 93.2266 38.1562 92.5859 38.1562C91.9349 38.1562 91.3672 38.0469 90.8828 37.8281C90.3984 37.6094 89.9948 37.3047 89.6719 36.9141C89.3542 36.5234 89.1146 36.0703 88.9531 35.5547C88.7969 35.0391 88.7188 34.487 88.7188 33.8984V33.6484C88.7188 33.0599 88.7969 32.5078 88.9531 31.9922C89.1146 31.4766 89.3542 31.0234 89.6719 30.6328C89.9948 30.2422 90.3984 29.9375 90.8828 29.7188C91.3672 29.5 91.9323 29.3906 92.5781 29.3906C93.2604 29.3906 93.8594 29.5234 94.375 29.7891C94.8958 30.0547 95.3021 30.4297 95.5938 30.9141C95.8906 31.3984 96.0443 31.9688 96.0547 32.625H94.1094C94.099 32.3229 94.0312 32.0521 93.9062 31.8125C93.7812 31.5729 93.6042 31.3802 93.375 31.2344C93.1458 31.0885 92.8672 31.0156 92.5391 31.0156C92.1901 31.0156 91.8984 31.0885 91.6641 31.2344C91.4349 31.3802 91.2552 31.5807 91.125 31.8359C91 32.0859 90.9115 32.3672 90.8594 32.6797C90.8125 32.987 90.7891 33.3099 90.7891 33.6484V33.8984C90.7891 34.2422 90.8125 34.5703 90.8594 34.8828C90.9115 35.1953 91 35.4766 91.125 35.7266C91.2552 35.9714 91.4349 36.1667 91.6641 36.3125C91.8984 36.4583 92.1953 36.5312 92.5547 36.5312ZM102.086 36.2031V32.3047C102.086 32.0182 102.036 31.7708 101.938 31.5625C101.839 31.3542 101.688 31.1927 101.484 31.0781C101.281 30.9635 101.023 30.9062 100.711 30.9062C100.435 30.9062 100.193 30.9531 99.9844 31.0469C99.7812 31.1406 99.625 31.2734 99.5156 31.4453C99.4062 31.612 99.3516 31.8047 99.3516 32.0234H97.2812C97.2812 31.6745 97.3646 31.3438 97.5312 31.0312C97.6979 30.7135 97.9349 30.4323 98.2422 30.1875C98.5547 29.9375 98.9271 29.7422 99.3594 29.6016C99.7969 29.4609 100.286 29.3906 100.828 29.3906C101.469 29.3906 102.039 29.5 102.539 29.7188C103.044 29.9323 103.44 30.2552 103.727 30.6875C104.018 31.1198 104.164 31.6641 104.164 32.3203V36.0078C104.164 36.4297 104.19 36.7917 104.242 37.0938C104.299 37.3906 104.383 37.6484 104.492 37.8672V38H102.391C102.292 37.7865 102.216 37.5156 102.164 37.1875C102.112 36.8542 102.086 36.526 102.086 36.2031ZM102.375 32.8516L102.391 34.0781H101.086C100.763 34.0781 100.479 34.112 100.234 34.1797C99.9896 34.2422 99.7891 34.3359 99.6328 34.4609C99.4766 34.5807 99.3594 34.7266 99.2812 34.8984C99.2031 35.0651 99.1641 35.2552 99.1641 35.4688C99.1641 35.6771 99.2109 35.8646 99.3047 36.0312C99.4036 36.1979 99.5443 36.3307 99.7266 36.4297C99.9141 36.5234 100.133 36.5703 100.383 36.5703C100.747 36.5703 101.065 36.4974 101.336 36.3516C101.607 36.2005 101.818 36.0182 101.969 35.8047C102.12 35.5911 102.201 35.388 102.211 35.1953L102.805 36.0859C102.732 36.2995 102.622 36.526 102.477 36.7656C102.331 37.0052 102.143 37.2292 101.914 37.4375C101.685 37.6458 101.409 37.8177 101.086 37.9531C100.763 38.0885 100.388 38.1562 99.9609 38.1562C99.4141 38.1562 98.9245 38.0469 98.4922 37.8281C98.0599 37.6094 97.7188 37.3099 97.4688 36.9297C97.2188 36.5495 97.0938 36.1172 97.0938 35.6328C97.0938 35.1849 97.1771 34.7891 97.3438 34.4453C97.5104 34.1016 97.7578 33.8125 98.0859 33.5781C98.4141 33.3385 98.8203 33.1589 99.3047 33.0391C99.7943 32.9141 100.354 32.8516 100.984 32.8516H102.375ZM110.672 35.6875C110.672 35.5104 110.625 35.3516 110.531 35.2109C110.438 35.0703 110.26 34.9427 110 34.8281C109.745 34.7083 109.37 34.5964 108.875 34.4922C108.438 34.3984 108.034 34.2812 107.664 34.1406C107.294 34 106.977 33.8307 106.711 33.6328C106.445 33.4297 106.237 33.1927 106.086 32.9219C105.94 32.6458 105.867 32.3281 105.867 31.9688C105.867 31.6198 105.943 31.2917 106.094 30.9844C106.245 30.6719 106.464 30.3984 106.75 30.1641C107.036 29.9245 107.385 29.737 107.797 29.6016C108.208 29.4609 108.672 29.3906 109.188 29.3906C109.906 29.3906 110.523 29.5078 111.039 29.7422C111.56 29.9766 111.958 30.2995 112.234 30.7109C112.51 31.1172 112.648 31.5755 112.648 32.0859H110.586C110.586 31.862 110.534 31.6589 110.43 31.4766C110.331 31.2943 110.177 31.1484 109.969 31.0391C109.76 30.9245 109.497 30.8672 109.18 30.8672C108.893 30.8672 108.651 30.9141 108.453 31.0078C108.26 31.1016 108.115 31.224 108.016 31.375C107.917 31.526 107.867 31.6927 107.867 31.875C107.867 32.0104 107.893 32.1328 107.945 32.2422C108.003 32.3464 108.094 32.4427 108.219 32.5312C108.344 32.6198 108.513 32.7005 108.727 32.7734C108.945 32.8464 109.214 32.9167 109.531 32.9844C110.161 33.1094 110.711 33.276 111.18 33.4844C111.654 33.6875 112.023 33.9583 112.289 34.2969C112.555 34.6354 112.688 35.0677 112.688 35.5938C112.688 35.9688 112.607 36.3125 112.445 36.625C112.284 36.9323 112.049 37.2005 111.742 37.4297C111.435 37.6589 111.068 37.8385 110.641 37.9688C110.214 38.0938 109.732 38.1562 109.195 38.1562C108.419 38.1562 107.763 38.0182 107.227 37.7422C106.69 37.4609 106.284 37.1068 106.008 36.6797C105.732 36.2474 105.594 35.7995 105.594 35.3359H107.57C107.586 35.6641 107.674 35.9271 107.836 36.125C107.997 36.3229 108.201 36.4661 108.445 36.5547C108.695 36.638 108.958 36.6797 109.234 36.6797C109.547 36.6797 109.81 36.638 110.023 36.5547C110.237 36.4661 110.398 36.349 110.508 36.2031C110.617 36.0521 110.672 35.8802 110.672 35.6875ZM118.258 29.5469V31.0312H113.414V29.5469H118.258ZM114.711 27.4688H116.781V35.5625C116.781 35.8125 116.815 36.0052 116.883 36.1406C116.951 36.276 117.052 36.3672 117.188 36.4141C117.323 36.4609 117.484 36.4844 117.672 36.4844C117.807 36.4844 117.932 36.4766 118.047 36.4609C118.161 36.4453 118.258 36.4297 118.336 36.4141L118.344 37.9609C118.172 38.0182 117.977 38.0651 117.758 38.1016C117.544 38.138 117.302 38.1562 117.031 38.1562C116.568 38.1562 116.161 38.0781 115.812 37.9219C115.464 37.7604 115.193 37.5026 115 37.1484C114.807 36.7891 114.711 36.3151 114.711 35.7266V27.4688Z" fill="black"/>
<g clip-path="url(#clip0_46_107)">
<path d="M15.8945 34.1055C13.564 31.7754 12.1227 28.5561 12.1227 25C12.1227 21.4439 13.564 18.2246 15.8945 15.8944L17.0396 17.0395C15.0026 19.0768 13.7424 21.8912 13.7424 25C13.7424 28.1088 15.0026 30.9232 17.0396 32.9605L15.8945 34.1055ZM19.4167 30.5834C17.9877 29.1544 17.1039 27.1806 17.1039 25C17.1039 22.8193 17.9877 20.8456 19.4167 19.4166L20.5621 20.562C19.4263 21.6978 18.7236 23.2666 18.7236 25C18.7236 26.7333 19.4263 28.3022 20.5621 29.438L19.4167 30.5834ZM29.4381 29.438C30.5738 28.3022 31.2766 26.7333 31.2766 25C31.2766 23.2666 30.5738 21.6978 29.4381 20.562L30.5835 19.4166C32.0125 20.8456 32.8963 22.8193 32.8963 25C32.8963 27.1806 32.0125 29.1544 30.5835 30.5834L29.4381 29.438ZM34.1057 34.1055L32.9606 32.9605C34.9976 30.9232 36.2578 28.1088 36.2578 25C36.2578 21.8912 34.9976 19.0768 32.9606 17.0395L34.1057 15.8944C36.4362 18.2246 37.8775 21.4439 37.8775 25C37.8775 28.5561 36.4362 31.7754 34.1057 34.1055ZM25.0001 8.64125C15.9654 8.64125 8.64136 15.9653 8.64136 25C8.64136 32.2262 13.3271 38.3578 19.8259 40.5231L24.0269 27.9196C22.8044 27.5124 21.9225 26.3592 21.9225 25C21.9225 23.3002 23.3003 21.9224 25.0001 21.9224C26.6999 21.9224 28.0777 23.3002 28.0777 25C28.0777 26.3592 27.1958 27.5124 25.9733 27.9196L30.1743 40.5231C36.6731 38.3578 41.3588 32.2262 41.3588 25C41.3588 15.9653 34.0348 8.64125 25.0001 8.64125ZM27.0124 41.2354C26.2842 40.6698 25.5792 40.0469 24.9053 39.3668C24.2538 40.0407 23.5746 40.6594 22.8741 41.2216C23.57 41.3117 24.2796 41.3587 25.0001 41.3587C25.6813 41.3587 26.3528 41.3167 27.0124 41.2354ZM25.9167 38.2484C26.814 39.2586 27.7771 40.1509 28.7823 40.9187C28.8494 40.9026 28.916 40.8864 28.9827 40.8698L27.2451 36.5255C26.8221 37.1288 26.3782 37.7036 25.9167 38.2484ZM24.9762 37.1161C25.5372 36.3925 26.0654 35.6189 26.5543 34.7983L25.0001 30.9132L23.427 34.8457C23.9078 35.6486 24.426 36.4064 24.9762 37.1161ZM21.1813 40.9095C22.1514 40.1674 23.0822 39.3106 23.9521 38.3428C23.5075 37.8338 23.0799 37.2972 22.6719 36.7339L21.0175 40.8698C21.0718 40.8833 21.1265 40.8964 21.1813 40.9095ZM25.0001 42.9799C15.07 42.9799 7.02051 34.93 7.02051 25C7.02051 15.0699 15.07 7.02002 25.0001 7.02002C34.9301 7.02002 42.9801 15.0699 42.9801 25C42.9801 34.93 34.9301 42.9799 25.0001 42.9799Z" fill="#F57E20"/>
<path d="M15.8944 34.1056L15.9087 34.0913C13.582 31.7646 12.1426 28.5503 12.1426 25C12.1426 21.4497 13.5816 18.2354 15.9087 15.9087L15.8944 15.8944L15.8798 15.9087L17.0252 17.0541L17.0395 17.0395L17.0252 17.0252C14.9844 19.0664 13.7223 21.8858 13.7223 25C13.7223 28.1142 14.9844 30.9336 17.0252 32.9748L17.0395 32.9605L17.0252 32.9459L15.8798 34.0913L15.8944 34.1056L15.9087 34.1202L17.0684 32.9605L17.0541 32.9459C15.0202 30.9124 13.7627 28.1034 13.7627 25C13.7627 21.8966 15.0202 19.0876 17.0541 17.0541L17.0684 17.0395L15.8944 15.8655L15.8798 15.8798C13.5458 18.2138 12.1022 21.4385 12.1022 25C12.1022 28.5615 13.5458 31.7862 15.8798 34.1202L15.8944 34.1345L15.9087 34.1202L15.8944 34.1056ZM19.4166 30.5834L19.4309 30.5691C18.0054 29.144 17.1238 27.1749 17.1238 25C17.1238 22.8251 18.0054 20.856 19.4309 19.4309L19.4166 19.4166L19.402 19.4309L20.5474 20.5763L20.562 20.562L20.5474 20.5474C19.4081 21.687 18.7035 23.2613 18.7035 25C18.7035 26.7387 19.4081 28.313 20.5474 29.4526L20.562 29.438L20.5474 29.4237L19.402 30.5691L19.4166 30.5834L19.4309 30.598L20.5905 29.438L20.5763 29.4237C19.444 28.2914 18.7439 26.7276 18.7439 25C18.7439 23.2724 19.444 21.7086 20.5763 20.5763L20.5905 20.562L19.4166 19.3877L19.402 19.402C17.9695 20.8348 17.0834 22.814 17.0834 25C17.0834 27.186 17.9695 29.1652 19.402 30.598L19.4166 30.6123L19.4309 30.598L19.4166 30.5834ZM29.438 29.438L29.4526 29.4526C30.5919 28.313 31.2965 26.7387 31.2965 25C31.2965 23.2613 30.5919 21.687 29.4526 20.5474L29.438 20.562L29.4526 20.5763L30.598 19.4309L30.5834 19.4166L30.5691 19.4309C31.9947 20.856 32.8762 22.8251 32.8762 25C32.8762 27.1749 31.9947 29.144 30.5691 30.5691L30.5834 30.5834L30.598 30.5691L29.4526 29.4237L29.438 29.438L29.4237 29.4526L30.5834 30.6123L30.598 30.598C32.0305 29.1652 32.9166 27.186 32.9166 25C32.9166 22.814 32.0305 20.8348 30.598 19.402L30.5834 19.3877L29.4095 20.562L29.4237 20.5763C30.556 21.7086 31.2561 23.2724 31.2561 25C31.2561 26.7276 30.556 28.2914 29.4237 29.4237L29.4095 29.438L29.4237 29.4526L29.438 29.438ZM34.1056 34.1056L34.1202 34.0913L32.9748 32.9459L32.9605 32.9605L32.9748 32.9748C35.0156 30.9336 36.2777 28.1142 36.2777 25C36.2777 21.8858 35.0156 19.0664 32.9748 17.0252L32.9605 17.0395L32.9748 17.0541L34.1202 15.9087L34.1056 15.8944L34.0913 15.9087C36.418 18.2354 37.857 21.4497 37.857 25C37.857 28.5503 36.418 31.7646 34.0913 34.0913L34.1056 34.1056L34.1202 34.1202C36.4542 31.7862 37.8978 28.5615 37.8978 25C37.8978 21.4385 36.4542 18.2138 34.1202 15.8798L34.1056 15.8655L32.9316 17.0395L32.9459 17.0541C34.9798 19.0876 36.2373 21.8966 36.2373 25C36.2373 28.1034 34.9798 30.9124 32.9459 32.9459L32.9316 32.9605L34.1056 34.1345L34.1202 34.1202L34.1056 34.1056ZM25 8.64127V8.62085C15.9542 8.62085 8.62085 15.9542 8.62085 25C8.62085 32.2354 13.3127 38.374 19.8192 40.5423L19.8385 40.5485L24.0526 27.9069L24.0333 27.9003C22.8186 27.4958 21.9429 26.3504 21.9429 25C21.9429 24.1559 22.285 23.3915 22.8382 22.8382C23.3915 22.285 24.1555 21.9429 25 21.9429C25.8441 21.9429 26.6085 22.285 27.1618 22.8382C27.715 23.3915 28.0572 24.1555 28.0572 25C28.0572 26.3504 27.1814 27.4958 25.9667 27.9003L25.9474 27.9069L30.1615 40.5485L30.1808 40.5423C36.6877 38.374 41.3792 32.2354 41.3792 25C41.3792 15.9542 34.0458 8.62085 25 8.62085V8.6613C29.5119 8.6613 33.5962 10.4902 36.5532 13.4468C39.5098 16.4038 41.3387 20.4881 41.3387 25C41.3387 32.2173 36.6584 38.3413 30.1681 40.5038L30.1742 40.5231L30.1935 40.5165L25.9925 27.9131L25.9732 27.9196L25.9798 27.9389C27.2103 27.5289 28.0976 26.3685 28.098 25C28.0976 23.289 26.711 21.9024 25 21.902C23.289 21.9024 21.9024 23.289 21.902 25C21.9024 26.3685 22.7897 27.5289 24.0202 27.9389L24.0268 27.9196L24.0075 27.9131L19.8065 40.5165L19.8258 40.5231L19.8319 40.5038C13.3416 38.3413 8.6613 32.2173 8.6613 25C8.6613 20.4881 10.4902 16.4038 13.4468 13.4468C16.4038 10.4902 20.4881 8.6613 25 8.6613V8.64127ZM27.0123 41.2354L27.0246 41.2197C26.2972 40.6545 25.5929 40.0319 24.9195 39.3526L24.9048 39.3376L24.8906 39.3526C24.2399 40.0261 23.561 40.6441 22.8613 41.2058L22.8244 41.2354L22.8714 41.2416C23.5683 41.3322 24.2788 41.3792 25 41.3792C25.6819 41.3792 26.3542 41.3368 27.0146 41.2559L27.0631 41.2497L27.0246 41.2197L27.0123 41.2354L27.0096 41.2154C26.3512 41.2963 25.6804 41.3387 25 41.3387C24.2803 41.3387 23.5718 41.2917 22.8768 41.2015L22.8741 41.2216L22.8868 41.2374C23.5876 40.6745 24.268 40.0554 24.9199 39.3807L24.9052 39.3669L24.891 39.3811C25.5652 40.0619 26.271 40.6853 26.9996 41.2516L27.0123 41.2354ZM25.9166 38.2484L25.9012 38.2623C26.7992 39.2729 27.7636 40.1663 28.7699 40.9345L28.7776 40.9403L28.7869 40.9384C28.8539 40.9226 28.9209 40.906 28.9876 40.8895L29.0099 40.8837L27.25 36.4835L27.2284 36.5139C26.8058 37.1165 26.3623 37.6909 25.9012 38.2357L25.8896 38.2492L25.9012 38.2623L25.9166 38.2484L25.932 38.2619C26.3939 37.7164 26.8381 37.1408 27.2616 36.537L27.245 36.5255L27.2261 36.5332L28.9637 40.8771L28.9826 40.8698L28.9776 40.8502C28.9109 40.8667 28.8443 40.8829 28.7776 40.8987L28.7822 40.9188L28.7946 40.9026C27.7902 40.1355 26.8281 39.244 25.9316 38.2353L25.9166 38.2484ZM24.9761 37.1161L24.9923 37.1284C25.5536 36.4045 26.0822 35.6297 26.5715 34.8083L26.5765 34.7998L25 30.8585L23.4042 34.8476L23.4096 34.8561C23.8908 35.6598 24.4094 36.4184 24.9603 37.1284L24.9761 37.1492L24.9923 37.1284L24.9761 37.1161L24.9923 37.1038C24.4425 36.3949 23.9247 35.6374 23.4443 34.8353L23.4269 34.8457L23.4458 34.8534L25 30.9675L26.5353 34.8056L26.5542 34.7983L26.5365 34.7879C26.0483 35.6078 25.5205 36.381 24.9603 37.1038L24.9761 37.1161ZM21.1812 40.9095L21.1935 40.9257C22.1644 40.1829 23.0964 39.3249 23.9671 38.3563L23.9794 38.3432L23.9675 38.3297C23.5232 37.8211 23.096 37.2848 22.688 36.7223L22.6664 36.6923L20.9901 40.8837L21.0124 40.8895C21.0671 40.903 21.1218 40.9161 21.1765 40.9295L21.1858 40.9315L21.1935 40.9257L21.1812 40.9095L21.1858 40.8899C21.1311 40.8768 21.0768 40.8637 21.0224 40.8502L21.0174 40.8698L21.0363 40.8771L22.6907 36.7416L22.6718 36.7339L22.6552 36.7459C23.064 37.3095 23.4917 37.847 23.937 38.3563L23.9521 38.3428L23.937 38.3293C23.0679 39.296 22.1378 40.1524 21.1688 40.8937L21.1812 40.9095ZM25 42.98V42.9595C20.0408 42.9595 15.5508 40.9496 12.3006 37.6994C9.05081 34.4492 7.04045 29.9592 7.04045 25C7.04045 20.0408 9.05081 15.5508 12.3006 12.3006C15.5508 9.05043 20.0408 7.04045 25 7.04045C29.9592 7.04045 34.4492 9.05043 37.6994 12.3006C40.9496 15.5508 42.9595 20.0408 42.9595 25C42.9595 29.9592 40.9496 34.4492 37.6994 37.6994C34.4492 40.9496 29.9592 42.9595 25 42.9595V43C34.9412 43 43 34.9412 43 25C43 15.0588 34.9412 7 25 7C15.0588 7 7 15.0588 7 25C7 34.9412 15.0588 43 25 43V42.98Z" fill="white"/>
</g>
<defs>
<clipPath id="clip0_46_107">
<rect width="36" height="36" fill="white" transform="translate(7 7)"/>
</clipPath>
</defs>
</svg>
