<svg width="175" height="50" viewBox="0 0 175 50" fill="none" xmlns="http://www.w3.org/2000/svg">
<rect x="0.5" y="0.5" width="174" height="49" rx="7.5" stroke="#8D8D8D"/>
<path d="M61.8011 12.3636C61.7415 11.8598 61.4995 11.4688 61.0753 11.1903C60.651 10.9119 60.1307 10.7727 59.5142 10.7727C59.0634 10.7727 58.669 10.8456 58.331 10.9915C57.9962 11.1373 57.7344 11.3378 57.5455 11.593C57.3598 11.8482 57.267 12.1383 57.267 12.4631C57.267 12.7348 57.3317 12.9685 57.4609 13.1641C57.5935 13.3563 57.7625 13.517 57.968 13.6463C58.1735 13.7723 58.389 13.8767 58.6143 13.9595C58.8397 14.0391 59.0469 14.1037 59.2358 14.1534L60.2699 14.4318C60.535 14.5014 60.83 14.5975 61.1548 14.7202C61.483 14.8428 61.7962 15.0102 62.0945 15.2223C62.3961 15.4311 62.6446 15.6996 62.8402 16.0277C63.0357 16.3558 63.1335 16.7585 63.1335 17.2358C63.1335 17.786 62.9893 18.2831 62.701 18.7273C62.416 19.1714 61.9983 19.5244 61.4482 19.7862C60.9013 20.0481 60.2367 20.179 59.4545 20.179C58.7254 20.179 58.094 20.0613 57.5604 19.826C57.0301 19.5907 56.6125 19.2625 56.3075 18.8416C56.0059 18.4207 55.8352 17.9318 55.7955 17.375H57.0682C57.1013 17.7595 57.2306 18.0777 57.456 18.3295C57.6847 18.5781 57.973 18.7637 58.321 18.8864C58.6723 19.0057 59.0502 19.0653 59.4545 19.0653C59.9252 19.0653 60.3478 18.9891 60.7223 18.8366C61.0968 18.6809 61.3935 18.4654 61.6122 18.1903C61.831 17.9119 61.9403 17.5871 61.9403 17.2159C61.9403 16.8778 61.8459 16.6027 61.657 16.3906C61.468 16.1785 61.2195 16.0062 60.9112 15.8736C60.603 15.741 60.2699 15.625 59.9119 15.5256L58.6591 15.1676C57.8636 14.9389 57.2339 14.6125 56.7699 14.1882C56.3059 13.764 56.0739 13.2088 56.0739 12.5227C56.0739 11.9527 56.228 11.4555 56.5362 11.0312C56.8478 10.6037 57.2654 10.2723 57.7891 10.0369C58.3161 9.7983 58.9044 9.67898 59.554 9.67898C60.2102 9.67898 60.7936 9.79664 61.304 10.032C61.8144 10.264 62.2188 10.5821 62.517 10.9865C62.8187 11.3909 62.9777 11.8499 62.9943 12.3636H61.8011ZM69.8141 16.8778V12.3636H70.9874V20H69.8141V18.7074H69.7346C69.5556 19.0952 69.2772 19.425 68.8993 19.6967C68.5215 19.9652 68.0442 20.0994 67.4675 20.0994C66.9902 20.0994 66.566 19.995 66.1948 19.7862C65.8236 19.5741 65.5319 19.2559 65.3198 18.8317C65.1077 18.4041 65.0016 17.8655 65.0016 17.2159V12.3636H66.1749V17.1364C66.1749 17.6932 66.3307 18.1373 66.6422 18.4688C66.9571 18.8002 67.3581 18.9659 67.8453 18.9659C68.137 18.9659 68.4337 18.8913 68.7353 18.7422C69.0402 18.593 69.2954 18.3643 69.5009 18.0561C69.7097 17.7479 69.8141 17.3551 69.8141 16.8778ZM73.2955 20V9.81818H74.4688V13.5767H74.5682C74.6544 13.4441 74.7737 13.2751 74.9261 13.0696C75.0819 12.8608 75.304 12.6752 75.5923 12.5128C75.884 12.3471 76.2784 12.2642 76.7756 12.2642C77.4186 12.2642 77.9853 12.425 78.4759 12.7464C78.9664 13.0679 79.3492 13.5237 79.6243 14.1136C79.8994 14.7036 80.0369 15.3996 80.0369 16.2017C80.0369 17.0104 79.8994 17.7114 79.6243 18.3047C79.3492 18.8946 78.968 19.352 78.4808 19.6768C77.9936 19.9983 77.4318 20.1591 76.7955 20.1591C76.3049 20.1591 75.9122 20.0779 75.6172 19.9155C75.3222 19.7498 75.0952 19.5625 74.9361 19.3537C74.777 19.1416 74.6544 18.9659 74.5682 18.8267H74.429V20H73.2955ZM74.4489 16.1818C74.4489 16.7585 74.5334 17.2673 74.7024 17.7081C74.8714 18.1456 75.1184 18.4886 75.4432 18.7372C75.768 18.9825 76.1657 19.1051 76.6364 19.1051C77.1269 19.1051 77.5362 18.9759 77.8643 18.7173C78.1958 18.4555 78.4444 18.1042 78.6101 17.6634C78.7791 17.2192 78.8636 16.7254 78.8636 16.1818C78.8636 15.6449 78.7808 15.161 78.6151 14.7301C78.4527 14.2959 78.2057 13.9529 77.8743 13.701C77.5462 13.4458 77.1335 13.3182 76.6364 13.3182C76.1591 13.3182 75.758 13.4392 75.4332 13.6811C75.1084 13.9197 74.8632 14.2545 74.6974 14.6854C74.5317 15.1129 74.4489 15.6117 74.4489 16.1818ZM87.2408 14.0739L86.1868 14.3722C86.1205 14.1965 86.0227 14.0258 85.8935 13.8601C85.7675 13.6911 85.5952 13.5518 85.3764 13.4425C85.1577 13.3331 84.8776 13.2784 84.5362 13.2784C84.0689 13.2784 83.6795 13.3861 83.3679 13.6016C83.0597 13.8137 82.9055 14.0838 82.9055 14.4119C82.9055 14.7036 83.0116 14.9339 83.2237 15.103C83.4358 15.272 83.7673 15.4129 84.218 15.5256L85.3516 15.804C86.0343 15.9697 86.5431 16.2232 86.8778 16.5646C87.2126 16.9027 87.38 17.3385 87.38 17.8722C87.38 18.3097 87.254 18.7008 87.0021 19.0455C86.7536 19.3902 86.4055 19.6619 85.9581 19.8608C85.5107 20.0597 84.9903 20.1591 84.397 20.1591C83.6181 20.1591 82.9735 19.9901 82.4631 19.652C81.9527 19.3139 81.6295 18.8201 81.4936 18.1705L82.6072 17.892C82.7133 18.303 82.9138 18.6113 83.2088 18.8168C83.5071 19.0223 83.8965 19.125 84.3771 19.125C84.924 19.125 85.3582 19.009 85.6797 18.777C86.0045 18.5417 86.1669 18.2599 86.1669 17.9318C86.1669 17.6667 86.0741 17.4446 85.8885 17.2656C85.7029 17.0833 85.4179 16.9474 85.0334 16.858L83.7607 16.5597C83.0613 16.3939 82.5476 16.1371 82.2195 15.7891C81.8946 15.4377 81.7322 14.9986 81.7322 14.4716C81.7322 14.0407 81.8532 13.6596 82.0952 13.3281C82.3404 12.9967 82.6735 12.7365 83.0945 12.5476C83.5187 12.3587 83.9993 12.2642 84.5362 12.2642C85.2919 12.2642 85.8852 12.4299 86.3161 12.7614C86.7502 13.0928 87.0585 13.5303 87.2408 14.0739ZM92.2484 20.1591C91.5325 20.1591 90.916 19.9901 90.399 19.652C89.8819 19.3139 89.4842 18.8482 89.2058 18.255C88.9274 17.6617 88.7882 16.9839 88.7882 16.2216C88.7882 15.446 88.9307 14.7616 89.2157 14.1683C89.5041 13.5717 89.9051 13.1061 90.4189 12.7713C90.9359 12.4332 91.5391 12.2642 92.2285 12.2642C92.7654 12.2642 93.2493 12.3636 93.6802 12.5625C94.1111 12.7614 94.4641 13.0398 94.7392 13.3977C95.0143 13.7557 95.185 14.1733 95.2512 14.6506H94.0779C93.9885 14.3026 93.7896 13.9943 93.4814 13.7259C93.1764 13.4541 92.7654 13.3182 92.2484 13.3182C91.791 13.3182 91.39 13.4375 91.0453 13.6761C90.7039 13.9115 90.4371 14.2446 90.2449 14.6754C90.0559 15.103 89.9615 15.6051 89.9615 16.1818C89.9615 16.7718 90.0543 17.2855 90.2399 17.723C90.4288 18.1605 90.694 18.5002 91.0353 18.7422C91.38 18.9841 91.7844 19.1051 92.2484 19.1051C92.5533 19.1051 92.8301 19.0521 93.0787 18.946C93.3272 18.84 93.5377 18.6875 93.71 18.4886C93.8824 18.2898 94.005 18.0511 94.0779 17.7727H95.2512C95.185 18.2235 95.0209 18.6295 94.7591 18.9908C94.5005 19.3487 94.1575 19.6338 93.7299 19.8459C93.3057 20.0547 92.8118 20.1591 92.2484 20.1591ZM96.9664 20V12.3636H98.1V13.517H98.1795C98.3187 13.1392 98.5706 12.8326 98.9352 12.5973C99.2998 12.362 99.7108 12.2443 100.168 12.2443C100.254 12.2443 100.362 12.246 100.491 12.2493C100.621 12.2526 100.718 12.2576 100.785 12.2642V13.4574C100.745 13.4474 100.654 13.4325 100.511 13.4126C100.372 13.3894 100.224 13.3778 100.069 13.3778C99.6975 13.3778 99.3661 13.4557 99.0744 13.6115C98.786 13.764 98.5574 13.9761 98.3883 14.2479C98.2226 14.5163 98.1397 14.8229 98.1397 15.1676V20H96.9664ZM102.175 20V12.3636H103.349V20H102.175ZM102.772 11.0909C102.543 11.0909 102.346 11.013 102.18 10.8572C102.018 10.7015 101.937 10.5142 101.937 10.2955C101.937 10.0767 102.018 9.88944 102.18 9.73366C102.346 9.57789 102.543 9.5 102.772 9.5C103.001 9.5 103.196 9.57789 103.359 9.73366C103.524 9.88944 103.607 10.0767 103.607 10.2955C103.607 10.5142 103.524 10.7015 103.359 10.8572C103.196 11.013 103.001 11.0909 102.772 11.0909ZM105.657 20V9.81818H106.83V13.5767H106.93C107.016 13.4441 107.135 13.2751 107.287 13.0696C107.443 12.8608 107.665 12.6752 107.954 12.5128C108.245 12.3471 108.64 12.2642 109.137 12.2642C109.78 12.2642 110.347 12.425 110.837 12.7464C111.328 13.0679 111.711 13.5237 111.986 14.1136C112.261 14.7036 112.398 15.3996 112.398 16.2017C112.398 17.0104 112.261 17.7114 111.986 18.3047C111.711 18.8946 111.329 19.352 110.842 19.6768C110.355 19.9983 109.793 20.1591 109.157 20.1591C108.666 20.1591 108.273 20.0779 107.979 19.9155C107.684 19.7498 107.456 19.5625 107.297 19.3537C107.138 19.1416 107.016 18.9659 106.93 18.8267H106.79V20H105.657ZM106.81 16.1818C106.81 16.7585 106.895 17.2673 107.064 17.7081C107.233 18.1456 107.48 18.4886 107.805 18.7372C108.129 18.9825 108.527 19.1051 108.998 19.1051C109.488 19.1051 109.898 18.9759 110.226 18.7173C110.557 18.4555 110.806 18.1042 110.971 17.6634C111.14 17.2192 111.225 16.7254 111.225 16.1818C111.225 15.6449 111.142 15.161 110.976 14.7301C110.814 14.2959 110.567 13.9529 110.236 13.701C109.907 13.4458 109.495 13.3182 108.998 13.3182C108.52 13.3182 108.119 13.4392 107.795 13.6811C107.47 13.9197 107.224 14.2545 107.059 14.6854C106.893 15.1129 106.81 15.6117 106.81 16.1818ZM117.395 20.1591C116.659 20.1591 116.024 19.9967 115.491 19.6719C114.96 19.3438 114.551 18.8864 114.263 18.2997C113.978 17.7098 113.835 17.0237 113.835 16.2415C113.835 15.4593 113.978 14.7699 114.263 14.1733C114.551 13.5734 114.952 13.1061 115.466 12.7713C115.983 12.4332 116.586 12.2642 117.275 12.2642C117.673 12.2642 118.066 12.3305 118.454 12.4631C118.841 12.5956 119.194 12.8111 119.513 13.1094C119.831 13.4044 120.084 13.7955 120.273 14.2827C120.462 14.7699 120.557 15.3698 120.557 16.0824V16.5795H114.67V15.5653H119.363C119.363 15.1345 119.277 14.75 119.105 14.4119C118.936 14.0739 118.694 13.8071 118.379 13.6115C118.068 13.416 117.7 13.3182 117.275 13.3182C116.808 13.3182 116.404 13.4342 116.062 13.6662C115.724 13.8949 115.464 14.1932 115.282 14.5611C115.099 14.929 115.008 15.3234 115.008 15.7443V16.4205C115.008 16.9972 115.108 17.486 115.307 17.8871C115.509 18.2848 115.789 18.5881 116.147 18.7969C116.505 19.0024 116.921 19.1051 117.395 19.1051C117.703 19.1051 117.981 19.062 118.23 18.9759C118.482 18.8864 118.699 18.7538 118.881 18.5781C119.064 18.3991 119.204 18.1771 119.304 17.9119L120.437 18.2301C120.318 18.6146 120.117 18.9527 119.836 19.2443C119.554 19.5327 119.206 19.758 118.792 19.9205C118.377 20.0795 117.912 20.1591 117.395 20.1591ZM128.009 20L125.682 12.3636H126.915L128.566 18.2102H128.645L130.276 12.3636H131.529L133.14 18.1903H133.219L134.87 12.3636H136.103L133.776 20H132.623L130.952 14.1335H130.833L129.162 20H128.009ZM137.654 20V12.3636H138.827V20H137.654ZM138.251 11.0909C138.022 11.0909 137.825 11.013 137.659 10.8572C137.497 10.7015 137.415 10.5142 137.415 10.2955C137.415 10.0767 137.497 9.88944 137.659 9.73366C137.825 9.57789 138.022 9.5 138.251 9.5C138.479 9.5 138.675 9.57789 138.837 9.73366C139.003 9.88944 139.086 10.0767 139.086 10.2955C139.086 10.5142 139.003 10.7015 138.837 10.8572C138.675 11.013 138.479 11.0909 138.251 11.0909ZM144.297 12.3636V13.358H140.34V12.3636H144.297ZM141.493 10.5341H142.667V17.8125C142.667 18.1439 142.715 18.3925 142.811 18.5582C142.91 18.7206 143.036 18.83 143.189 18.8864C143.344 18.9394 143.508 18.9659 143.681 18.9659C143.81 18.9659 143.916 18.9593 143.999 18.946C144.082 18.9295 144.148 18.9162 144.198 18.9062L144.436 19.9602C144.357 19.9901 144.246 20.0199 144.103 20.0497C143.961 20.0829 143.78 20.0994 143.561 20.0994C143.23 20.0994 142.905 20.0282 142.587 19.8857C142.272 19.7431 142.01 19.526 141.801 19.2344C141.596 18.9427 141.493 18.5748 141.493 18.1307V10.5341ZM147.4 15.4062V20H146.226V9.81818H147.4V13.5568H147.499C147.678 13.1624 147.946 12.8492 148.304 12.6172C148.666 12.3819 149.146 12.2642 149.746 12.2642C150.266 12.2642 150.722 12.3686 151.113 12.5774C151.504 12.7829 151.808 13.0994 152.023 13.527C152.242 13.9512 152.351 14.4915 152.351 15.1477V20H151.178V15.2273C151.178 14.6207 151.02 14.1518 150.706 13.8203C150.394 13.4856 149.962 13.3182 149.408 13.3182C149.024 13.3182 148.679 13.3994 148.374 13.5618C148.072 13.7242 147.834 13.9612 147.658 14.2727C147.486 14.5843 147.4 14.9621 147.4 15.4062Z" fill="black"/>
<path d="M56.0859 26.625H60.2188C61.0833 26.625 61.8255 26.7552 62.4453 27.0156C63.0651 27.276 63.5417 27.6615 63.875 28.1719C64.2083 28.6823 64.375 29.3099 64.375 30.0547C64.375 30.6432 64.2708 31.1536 64.0625 31.5859C63.8542 32.0182 63.5599 32.3802 63.1797 32.6719C62.8047 32.9635 62.362 33.1927 61.8516 33.3594L61.1797 33.7031H57.5312L57.5156 32.0078H60.2422C60.6849 32.0078 61.0521 31.9297 61.3438 31.7734C61.6354 31.6172 61.8542 31.401 62 31.125C62.151 30.849 62.2266 30.5339 62.2266 30.1797C62.2266 29.7995 62.1536 29.4714 62.0078 29.1953C61.862 28.9141 61.6406 28.6979 61.3438 28.5469C61.0469 28.3958 60.6719 28.3203 60.2188 28.3203H58.2344V38H56.0859V26.625ZM62.5078 38L59.875 32.9062L62.1484 32.8984L64.8125 37.8906V38H62.5078ZM72.2109 35.0469C72.2109 34.8281 72.1771 34.6328 72.1094 34.4609C72.0469 34.2839 71.9297 34.125 71.7578 33.9844C71.5911 33.8385 71.3542 33.6979 71.0469 33.5625C70.7448 33.4219 70.3542 33.276 69.875 33.125C69.3438 32.9583 68.849 32.7708 68.3906 32.5625C67.9323 32.3542 67.5286 32.112 67.1797 31.8359C66.8359 31.5599 66.5677 31.2422 66.375 30.8828C66.1823 30.5182 66.0859 30.0964 66.0859 29.6172C66.0859 29.1484 66.1849 28.7214 66.3828 28.3359C66.5859 27.9505 66.8724 27.6198 67.2422 27.3438C67.612 27.0625 68.0469 26.8464 68.5469 26.6953C69.0521 26.5443 69.6094 26.4688 70.2188 26.4688C71.0625 26.4688 71.7917 26.6224 72.4062 26.9297C73.026 27.237 73.5052 27.6536 73.8438 28.1797C74.1823 28.7057 74.3516 29.2969 74.3516 29.9531H72.2109C72.2109 29.599 72.1354 29.2865 71.9844 29.0156C71.8385 28.7448 71.6146 28.5312 71.3125 28.375C71.0156 28.2188 70.6406 28.1406 70.1875 28.1406C69.75 28.1406 69.3854 28.2057 69.0938 28.3359C68.8073 28.4661 68.5911 28.6432 68.4453 28.8672C68.3047 29.0911 68.2344 29.3411 68.2344 29.6172C68.2344 29.8255 68.2839 30.013 68.3828 30.1797C68.4818 30.3411 68.6302 30.4948 68.8281 30.6406C69.026 30.7812 69.2708 30.9141 69.5625 31.0391C69.8594 31.1589 70.2031 31.2786 70.5938 31.3984C71.2188 31.5859 71.7656 31.7943 72.2344 32.0234C72.7083 32.2526 73.1016 32.513 73.4141 32.8047C73.7318 33.0964 73.9688 33.4245 74.125 33.7891C74.2865 34.1536 74.3672 34.5677 74.3672 35.0312C74.3672 35.5208 74.2708 35.9583 74.0781 36.3438C73.8854 36.7292 73.6094 37.0573 73.25 37.3281C72.8906 37.599 72.4583 37.8047 71.9531 37.9453C71.4531 38.0859 70.8932 38.1562 70.2734 38.1562C69.7214 38.1562 69.1745 38.0833 68.6328 37.9375C68.0964 37.7865 67.6094 37.5625 67.1719 37.2656C66.7344 36.9635 66.3854 36.5833 66.125 36.125C65.8646 35.6615 65.7344 35.1198 65.7344 34.5H67.8906C67.8906 34.8594 67.9479 35.1667 68.0625 35.4219C68.1823 35.6719 68.349 35.8776 68.5625 36.0391C68.7812 36.1953 69.0365 36.3099 69.3281 36.3828C69.6198 36.4557 69.9349 36.4922 70.2734 36.4922C70.7109 36.4922 71.0703 36.4323 71.3516 36.3125C71.638 36.1875 71.8516 36.0156 71.9922 35.7969C72.138 35.5781 72.2109 35.3281 72.2109 35.0469ZM81.9766 35.0469C81.9766 34.8281 81.9427 34.6328 81.875 34.4609C81.8125 34.2839 81.6953 34.125 81.5234 33.9844C81.3568 33.8385 81.1198 33.6979 80.8125 33.5625C80.5104 33.4219 80.1198 33.276 79.6406 33.125C79.1094 32.9583 78.6146 32.7708 78.1562 32.5625C77.6979 32.3542 77.2943 32.112 76.9453 31.8359C76.6016 31.5599 76.3333 31.2422 76.1406 30.8828C75.9479 30.5182 75.8516 30.0964 75.8516 29.6172C75.8516 29.1484 75.9505 28.7214 76.1484 28.3359C76.3516 27.9505 76.638 27.6198 77.0078 27.3438C77.3776 27.0625 77.8125 26.8464 78.3125 26.6953C78.8177 26.5443 79.375 26.4688 79.9844 26.4688C80.8281 26.4688 81.5573 26.6224 82.1719 26.9297C82.7917 27.237 83.2708 27.6536 83.6094 28.1797C83.9479 28.7057 84.1172 29.2969 84.1172 29.9531H81.9766C81.9766 29.599 81.901 29.2865 81.75 29.0156C81.6042 28.7448 81.3802 28.5312 81.0781 28.375C80.7812 28.2188 80.4062 28.1406 79.9531 28.1406C79.5156 28.1406 79.151 28.2057 78.8594 28.3359C78.5729 28.4661 78.3568 28.6432 78.2109 28.8672C78.0703 29.0911 78 29.3411 78 29.6172C78 29.8255 78.0495 30.013 78.1484 30.1797C78.2474 30.3411 78.3958 30.4948 78.5938 30.6406C78.7917 30.7812 79.0365 30.9141 79.3281 31.0391C79.625 31.1589 79.9688 31.2786 80.3594 31.3984C80.9844 31.5859 81.5312 31.7943 82 32.0234C82.474 32.2526 82.8672 32.513 83.1797 32.8047C83.4974 33.0964 83.7344 33.4245 83.8906 33.7891C84.0521 34.1536 84.1328 34.5677 84.1328 35.0312C84.1328 35.5208 84.0365 35.9583 83.8438 36.3438C83.651 36.7292 83.375 37.0573 83.0156 37.3281C82.6562 37.599 82.224 37.8047 81.7188 37.9453C81.2188 38.0859 80.6589 38.1562 80.0391 38.1562C79.487 38.1562 78.9401 38.0833 78.3984 37.9375C77.862 37.7865 77.375 37.5625 76.9375 37.2656C76.5 36.9635 76.151 36.5833 75.8906 36.125C75.6302 35.6615 75.5 35.1198 75.5 34.5H77.6562C77.6562 34.8594 77.7135 35.1667 77.8281 35.4219C77.9479 35.6719 78.1146 35.8776 78.3281 36.0391C78.5469 36.1953 78.8021 36.3099 79.0938 36.3828C79.3854 36.4557 79.7005 36.4922 80.0391 36.4922C80.4766 36.4922 80.8359 36.4323 81.1172 36.3125C81.4036 36.1875 81.6172 36.0156 81.7578 35.7969C81.9036 35.5781 81.9766 35.3281 81.9766 35.0469Z" fill="black"/>
<rect x="7" y="7" width="36" height="36" rx="4" fill="#F78422"/>
<path fill-rule="evenodd" clip-rule="evenodd" d="M14.2766 20.9786C22.0625 22.9064 27.8375 29.8864 27.8724 38.2126L21.9145 38.2126C21.883 33.1897 18.7247 28.9039 14.2766 27.1808L14.2766 20.9786Z" fill="white"/>
<path fill-rule="evenodd" clip-rule="evenodd" d="M14.2766 9.87222C28.3131 13.0424 38.7243 24.5206 38.7872 38.2126L32.8512 38.2126C32.7895 28.1742 25.2871 19.0188 14.2766 16.0129L14.2766 9.87222Z" fill="white"/>
<path d="M16.9574 35.4363C16.9574 36.9697 15.7571 38.2129 14.2766 38.2129C12.796 38.2129 11.5957 36.9697 11.5957 35.4363C11.5957 33.9028 12.796 32.6597 14.2766 32.6597C15.7571 32.6597 16.9574 33.9028 16.9574 35.4363Z" fill="white"/>
</svg>
