<svg width="175" height="50" viewBox="0 0 175 50" fill="none" xmlns="http://www.w3.org/2000/svg">
<rect x="0.5" y="0.5" width="174" height="49" rx="7.5" stroke="#8D8D8D"/>
<path d="M56.233 20V9.81818H57.4659V18.9062H62.1989V20H56.233ZM63.9489 20V12.3636H65.1222V20H63.9489ZM64.5455 11.0909C64.3168 11.0909 64.1196 11.013 63.9538 10.8572C63.7914 10.7015 63.7102 10.5142 63.7102 10.2955C63.7102 10.0767 63.7914 9.88944 63.9538 9.73366C64.1196 9.57789 64.3168 9.5 64.5455 9.5C64.7741 9.5 64.9697 9.57789 65.1321 9.73366C65.2978 9.88944 65.3807 10.0767 65.3807 10.2955C65.3807 10.5142 65.2978 10.7015 65.1321 10.8572C64.9697 11.013 64.7741 11.0909 64.5455 11.0909ZM72.6802 14.0739L71.6262 14.3722C71.56 14.1965 71.4622 14.0258 71.3329 13.8601C71.207 13.6911 71.0346 13.5518 70.8159 13.4425C70.5971 13.3331 70.3171 13.2784 69.9757 13.2784C69.5083 13.2784 69.1189 13.3861 68.8074 13.6016C68.4991 13.8137 68.345 14.0838 68.345 14.4119C68.345 14.7036 68.4511 14.9339 68.6632 15.103C68.8753 15.272 69.2067 15.4129 69.6575 15.5256L70.791 15.804C71.4738 15.9697 71.9825 16.2232 72.3173 16.5646C72.652 16.9027 72.8194 17.3385 72.8194 17.8722C72.8194 18.3097 72.6935 18.7008 72.4416 19.0455C72.193 19.3902 71.845 19.6619 71.3975 19.8608C70.9501 20.0597 70.4297 20.1591 69.8365 20.1591C69.0576 20.1591 68.4129 19.9901 67.9025 19.652C67.3921 19.3139 67.069 18.8201 66.9331 18.1705L68.0467 17.892C68.1528 18.303 68.3533 18.6113 68.6483 18.8168C68.9466 19.0223 69.336 19.125 69.8166 19.125C70.3635 19.125 70.7976 19.009 71.1191 18.777C71.444 18.5417 71.6064 18.2599 71.6064 17.9318C71.6064 17.6667 71.5136 17.4446 71.3279 17.2656C71.1423 17.0833 70.8573 16.9474 70.4728 16.858L69.2001 16.5597C68.5008 16.3939 67.987 16.1371 67.6589 15.7891C67.3341 15.4377 67.1717 14.9986 67.1717 14.4716C67.1717 14.0407 67.2927 13.6596 67.5346 13.3281C67.7799 12.9967 68.113 12.7365 68.5339 12.5476C68.9582 12.3587 69.4387 12.2642 69.9757 12.2642C70.7314 12.2642 71.3246 12.4299 71.7555 12.7614C72.1897 13.0928 72.4979 13.5303 72.6802 14.0739ZM77.9066 12.3636V13.358H73.9492V12.3636H77.9066ZM75.1026 10.5341H76.2759V17.8125C76.2759 18.1439 76.324 18.3925 76.4201 18.5582C76.5195 18.7206 76.6455 18.83 76.7979 18.8864C76.9537 18.9394 77.1178 18.9659 77.2901 18.9659C77.4194 18.9659 77.5255 18.9593 77.6083 18.946C77.6912 18.9295 77.7575 18.9162 77.8072 18.9062L78.0458 19.9602C77.9663 19.9901 77.8552 20.0199 77.7127 20.0497C77.5702 20.0829 77.3896 20.0994 77.1708 20.0994C76.8394 20.0994 76.5146 20.0282 76.1964 19.8857C75.8815 19.7431 75.6197 19.526 75.4109 19.2344C75.2054 18.9427 75.1026 18.5748 75.1026 18.1307V10.5341ZM82.7912 20.1591C82.0554 20.1591 81.4207 19.9967 80.8871 19.6719C80.3568 19.3438 79.9474 18.8864 79.6591 18.2997C79.3741 17.7098 79.2315 17.0237 79.2315 16.2415C79.2315 15.4593 79.3741 14.7699 79.6591 14.1733C79.9474 13.5734 80.3485 13.1061 80.8622 12.7713C81.3793 12.4332 81.9825 12.2642 82.6719 12.2642C83.0696 12.2642 83.4624 12.3305 83.8501 12.4631C84.2379 12.5956 84.5909 12.8111 84.9091 13.1094C85.2273 13.4044 85.4808 13.7955 85.6697 14.2827C85.8587 14.7699 85.9531 15.3698 85.9531 16.0824V16.5795H80.0668V15.5653H84.7599C84.7599 15.1345 84.6738 14.75 84.5014 14.4119C84.3324 14.0739 84.0904 13.8071 83.7756 13.6115C83.464 13.416 83.0961 13.3182 82.6719 13.3182C82.2045 13.3182 81.8002 13.4342 81.4588 13.6662C81.1207 13.8949 80.8606 14.1932 80.6783 14.5611C80.496 14.929 80.4048 15.3234 80.4048 15.7443V16.4205C80.4048 16.9972 80.5043 17.486 80.7031 17.8871C80.9053 18.2848 81.1854 18.5881 81.5433 18.7969C81.9013 19.0024 82.3172 19.1051 82.7912 19.1051C83.0994 19.1051 83.3778 19.062 83.6264 18.9759C83.8783 18.8864 84.0954 18.7538 84.2777 18.5781C84.46 18.3991 84.6009 18.1771 84.7003 17.9119L85.8338 18.2301C85.7145 18.6146 85.514 18.9527 85.2322 19.2443C84.9505 19.5327 84.6025 19.758 84.1882 19.9205C83.7739 20.0795 83.3082 20.1591 82.7912 20.1591ZM88.9112 15.4062V20H87.7379V12.3636H88.8714V13.5568H88.9709C89.1499 13.169 89.4216 12.8575 89.7862 12.6222C90.1508 12.3835 90.6214 12.2642 91.1982 12.2642C91.7152 12.2642 92.1676 12.3703 92.5554 12.5824C92.9432 12.7912 93.2448 13.1094 93.4602 13.5369C93.6757 13.9612 93.7834 14.4981 93.7834 15.1477V20H92.6101V15.2273C92.6101 14.6274 92.4543 14.16 92.1428 13.8253C91.8312 13.4872 91.4036 13.3182 90.8601 13.3182C90.4856 13.3182 90.1508 13.3994 89.8558 13.5618C89.5642 13.7242 89.3338 13.9612 89.1648 14.2727C88.9957 14.5843 88.9112 14.9621 88.9112 15.4062ZM102.967 20.1591C102.278 20.1591 101.673 19.995 101.153 19.6669C100.635 19.3388 100.231 18.8797 99.9395 18.2898C99.6511 17.6998 99.5069 17.0104 99.5069 16.2216C99.5069 15.4261 99.6511 14.7318 99.9395 14.1385C100.231 13.5452 100.635 13.0845 101.153 12.7564C101.673 12.4283 102.278 12.2642 102.967 12.2642C103.657 12.2642 104.26 12.4283 104.777 12.7564C105.297 13.0845 105.702 13.5452 105.99 14.1385C106.282 14.7318 106.427 15.4261 106.427 16.2216C106.427 17.0104 106.282 17.6998 105.99 18.2898C105.702 18.8797 105.297 19.3388 104.777 19.6669C104.26 19.995 103.657 20.1591 102.967 20.1591ZM102.967 19.1051C103.491 19.1051 103.922 18.9709 104.26 18.7024C104.598 18.4339 104.848 18.081 105.01 17.6435C105.173 17.206 105.254 16.732 105.254 16.2216C105.254 15.7112 105.173 15.2356 105.01 14.7947C104.848 14.3539 104.598 13.9976 104.26 13.7259C103.922 13.4541 103.491 13.3182 102.967 13.3182C102.443 13.3182 102.013 13.4541 101.675 13.7259C101.336 13.9976 101.086 14.3539 100.924 14.7947C100.761 15.2356 100.68 15.7112 100.68 16.2216C100.68 16.732 100.761 17.206 100.924 17.6435C101.086 18.081 101.336 18.4339 101.675 18.7024C102.013 18.9709 102.443 19.1051 102.967 19.1051ZM109.392 15.4062V20H108.218V12.3636H109.352V13.5568H109.451C109.63 13.169 109.902 12.8575 110.267 12.6222C110.631 12.3835 111.102 12.2642 111.679 12.2642C112.196 12.2642 112.648 12.3703 113.036 12.5824C113.424 12.7912 113.725 13.1094 113.941 13.5369C114.156 13.9612 114.264 14.4981 114.264 15.1477V20H113.091V15.2273C113.091 14.6274 112.935 14.16 112.623 13.8253C112.312 13.4872 111.884 13.3182 111.341 13.3182C110.966 13.3182 110.631 13.3994 110.336 13.5618C110.045 13.7242 109.814 13.9612 109.645 14.2727C109.476 14.5843 109.392 14.9621 109.392 15.4062Z" fill="black"/>
<path d="M62.0391 35.0469C62.0391 34.8281 62.0052 34.6328 61.9375 34.4609C61.875 34.2839 61.7578 34.125 61.5859 33.9844C61.4193 33.8385 61.1823 33.6979 60.875 33.5625C60.5729 33.4219 60.1823 33.276 59.7031 33.125C59.1719 32.9583 58.6771 32.7708 58.2188 32.5625C57.7604 32.3542 57.3568 32.112 57.0078 31.8359C56.6641 31.5599 56.3958 31.2422 56.2031 30.8828C56.0104 30.5182 55.9141 30.0964 55.9141 29.6172C55.9141 29.1484 56.013 28.7214 56.2109 28.3359C56.4141 27.9505 56.7005 27.6198 57.0703 27.3438C57.4401 27.0625 57.875 26.8464 58.375 26.6953C58.8802 26.5443 59.4375 26.4688 60.0469 26.4688C60.8906 26.4688 61.6198 26.6224 62.2344 26.9297C62.8542 27.237 63.3333 27.6536 63.6719 28.1797C64.0104 28.7057 64.1797 29.2969 64.1797 29.9531H62.0391C62.0391 29.599 61.9635 29.2865 61.8125 29.0156C61.6667 28.7448 61.4427 28.5312 61.1406 28.375C60.8438 28.2188 60.4688 28.1406 60.0156 28.1406C59.5781 28.1406 59.2135 28.2057 58.9219 28.3359C58.6354 28.4661 58.4193 28.6432 58.2734 28.8672C58.1328 29.0911 58.0625 29.3411 58.0625 29.6172C58.0625 29.8255 58.112 30.013 58.2109 30.1797C58.3099 30.3411 58.4583 30.4948 58.6562 30.6406C58.8542 30.7812 59.099 30.9141 59.3906 31.0391C59.6875 31.1589 60.0312 31.2786 60.4219 31.3984C61.0469 31.5859 61.5938 31.7943 62.0625 32.0234C62.5365 32.2526 62.9297 32.513 63.2422 32.8047C63.5599 33.0964 63.7969 33.4245 63.9531 33.7891C64.1146 34.1536 64.1953 34.5677 64.1953 35.0312C64.1953 35.5208 64.099 35.9583 63.9062 36.3438C63.7135 36.7292 63.4375 37.0573 63.0781 37.3281C62.7188 37.599 62.2865 37.8047 61.7812 37.9453C61.2812 38.0859 60.7214 38.1562 60.1016 38.1562C59.5495 38.1562 59.0026 38.0833 58.4609 37.9375C57.9245 37.7865 57.4375 37.5625 57 37.2656C56.5625 36.9635 56.2135 36.5833 55.9531 36.125C55.6927 35.6615 55.5625 35.1198 55.5625 34.5H57.7188C57.7188 34.8594 57.776 35.1667 57.8906 35.4219C58.0104 35.6719 58.1771 35.8776 58.3906 36.0391C58.6094 36.1953 58.8646 36.3099 59.1562 36.3828C59.4479 36.4557 59.763 36.4922 60.1016 36.4922C60.5391 36.4922 60.8984 36.4323 61.1797 36.3125C61.4661 36.1875 61.6797 36.0156 61.8203 35.7969C61.9661 35.5781 62.0391 35.3281 62.0391 35.0469ZM67.7578 31.1719V41.25H65.6875V29.5469H67.6016L67.7578 31.1719ZM73.1875 33.6875V33.8516C73.1875 34.4661 73.1146 35.0365 72.9688 35.5625C72.8281 36.0833 72.6198 36.5391 72.3438 36.9297C72.0677 37.3151 71.724 37.6172 71.3125 37.8359C70.9062 38.0495 70.4375 38.1562 69.9062 38.1562C69.3854 38.1562 68.9323 38.0573 68.5469 37.8594C68.1615 37.6562 67.8359 37.3698 67.5703 37C67.3047 36.6302 67.0911 36.2005 66.9297 35.7109C66.7734 35.2161 66.6562 34.6771 66.5781 34.0938V33.5703C66.6562 32.9505 66.7734 32.388 66.9297 31.8828C67.0911 31.3724 67.3047 30.9323 67.5703 30.5625C67.8359 30.1875 68.1589 29.8984 68.5391 29.6953C68.9245 29.4922 69.375 29.3906 69.8906 29.3906C70.4271 29.3906 70.8984 29.4922 71.3047 29.6953C71.7161 29.8984 72.0625 30.1901 72.3438 30.5703C72.625 30.9505 72.8359 31.4036 72.9766 31.9297C73.1172 32.4557 73.1875 33.0417 73.1875 33.6875ZM71.1172 33.8516V33.6875C71.1172 33.3125 71.0833 32.9661 71.0156 32.6484C70.9479 32.3255 70.8438 32.0443 70.7031 31.8047C70.5625 31.5599 70.3802 31.3698 70.1562 31.2344C69.9323 31.099 69.6615 31.0312 69.3438 31.0312C69.026 31.0312 68.7526 31.0833 68.5234 31.1875C68.2943 31.2917 68.1068 31.4401 67.9609 31.6328C67.8151 31.8255 67.7005 32.0547 67.6172 32.3203C67.5391 32.5807 67.487 32.8698 67.4609 33.1875V34.4844C67.5078 34.8698 67.599 35.2161 67.7344 35.5234C67.8698 35.8307 68.0677 36.0755 68.3281 36.2578C68.5938 36.4401 68.9375 36.5312 69.3594 36.5312C69.6771 36.5312 69.9479 36.4609 70.1719 36.3203C70.3958 36.1797 70.5781 35.987 70.7188 35.7422C70.8594 35.4922 70.9609 35.2057 71.0234 34.8828C71.0859 34.5599 71.1172 34.2161 71.1172 33.8516ZM74.3281 33.8594V33.6953C74.3281 33.0755 74.4167 32.5052 74.5938 31.9844C74.7708 31.4583 75.0286 31.0026 75.3672 30.6172C75.7057 30.2318 76.1198 29.9323 76.6094 29.7188C77.099 29.5 77.6562 29.3906 78.2812 29.3906C78.9167 29.3906 79.4792 29.5 79.9688 29.7188C80.4635 29.9323 80.8802 30.2318 81.2188 30.6172C81.5573 31.0026 81.8151 31.4583 81.9922 31.9844C82.1693 32.5052 82.2578 33.0755 82.2578 33.6953V33.8594C82.2578 34.474 82.1693 35.0443 81.9922 35.5703C81.8151 36.0911 81.5573 36.5469 81.2188 36.9375C80.8802 37.3229 80.4661 37.6224 79.9766 37.8359C79.487 38.0495 78.9271 38.1562 78.2969 38.1562C77.6719 38.1562 77.112 38.0495 76.6172 37.8359C76.1224 37.6224 75.7057 37.3229 75.3672 36.9375C75.0286 36.5469 74.7708 36.0911 74.5938 35.5703C74.4167 35.0443 74.3281 34.474 74.3281 33.8594ZM76.3906 33.6953V33.8594C76.3906 34.2292 76.4271 34.5755 76.5 34.8984C76.5729 35.2214 76.6849 35.5052 76.8359 35.75C76.987 35.9948 77.1823 36.1875 77.4219 36.3281C77.6667 36.4635 77.9583 36.5312 78.2969 36.5312C78.6302 36.5312 78.9167 36.4635 79.1562 36.3281C79.3958 36.1875 79.5911 35.9948 79.7422 35.75C79.8984 35.5052 80.013 35.2214 80.0859 34.8984C80.1589 34.5755 80.1953 34.2292 80.1953 33.8594V33.6953C80.1953 33.3307 80.1589 32.9896 80.0859 32.6719C80.013 32.349 79.8984 32.0651 79.7422 31.8203C79.5911 31.5703 79.3932 31.375 79.1484 31.2344C78.9089 31.0885 78.6198 31.0156 78.2812 31.0156C77.9479 31.0156 77.6615 31.0885 77.4219 31.2344C77.1823 31.375 76.987 31.5703 76.8359 31.8203C76.6849 32.0651 76.5729 32.349 76.5 32.6719C76.4271 32.9896 76.3906 33.3307 76.3906 33.6953ZM87.7578 29.5469V31.0312H82.9141V29.5469H87.7578ZM84.2109 27.4688H86.2812V35.5625C86.2812 35.8125 86.3151 36.0052 86.3828 36.1406C86.4505 36.276 86.5521 36.3672 86.6875 36.4141C86.8229 36.4609 86.9844 36.4844 87.1719 36.4844C87.3073 36.4844 87.4323 36.4766 87.5469 36.4609C87.6615 36.4453 87.7578 36.4297 87.8359 36.4141L87.8438 37.9609C87.6719 38.0182 87.4766 38.0651 87.2578 38.1016C87.0443 38.138 86.8021 38.1562 86.5312 38.1562C86.0677 38.1562 85.6615 38.0781 85.3125 37.9219C84.9635 37.7604 84.6927 37.5026 84.5 37.1484C84.3073 36.7891 84.2109 36.3151 84.2109 35.7266V27.4688ZM91.3203 29.5469V38H89.25V29.5469H91.3203ZM89.1094 27.3359C89.1094 27.0286 89.2135 26.7734 89.4219 26.5703C89.6354 26.3672 89.9219 26.2656 90.2812 26.2656C90.6406 26.2656 90.9245 26.3672 91.1328 26.5703C91.3464 26.7734 91.4531 27.0286 91.4531 27.3359C91.4531 27.638 91.3464 27.8906 91.1328 28.0938C90.9245 28.2969 90.6406 28.3984 90.2812 28.3984C89.9219 28.3984 89.6354 28.2969 89.4219 28.0938C89.2135 27.8906 89.1094 27.638 89.1094 27.3359ZM95.9922 38H93.9141V28.7656C93.9141 28.1302 94.0365 27.5964 94.2812 27.1641C94.526 26.7266 94.875 26.3958 95.3281 26.1719C95.7812 25.9479 96.3151 25.8359 96.9297 25.8359C97.1328 25.8359 97.3255 25.849 97.5078 25.875C97.6953 25.901 97.8802 25.9375 98.0625 25.9844L98.0234 27.5547C97.9245 27.5286 97.8151 27.5104 97.6953 27.5C97.5807 27.4896 97.4531 27.4844 97.3125 27.4844C97.0312 27.4844 96.7917 27.5339 96.5938 27.6328C96.3958 27.7318 96.2448 27.8776 96.1406 28.0703C96.0417 28.2578 95.9922 28.4896 95.9922 28.7656V38ZM97.7031 29.5469V31.0312H92.6406V29.5469H97.7031ZM101.453 37.0625L103.719 29.5469H105.93L102.539 39.2812C102.461 39.4896 102.359 39.7161 102.234 39.9609C102.115 40.2057 101.953 40.4375 101.75 40.6562C101.547 40.8802 101.292 41.0625 100.984 41.2031C100.682 41.3438 100.315 41.4141 99.8828 41.4141C99.6953 41.4141 99.5286 41.401 99.3828 41.375C99.237 41.349 99.0833 41.3151 98.9219 41.2734V39.7266C98.974 39.7318 99.0339 39.7344 99.1016 39.7344C99.1745 39.7396 99.237 39.7422 99.2891 39.7422C99.5911 39.7422 99.8411 39.7057 100.039 39.6328C100.237 39.5651 100.396 39.4531 100.516 39.2969C100.641 39.1458 100.745 38.9479 100.828 38.7031L101.453 37.0625ZM100.336 29.5469L102.25 35.7734L102.586 37.9531L101.164 38.2109L98.1094 29.5469H100.336Z" fill="black"/>
<g clip-path="url(#clip0_46_118)">
<path d="M26 7C16.0589 7 8 15.0591 8 25C8 34.9416 16.0591 43 26 43C35.9418 43 44 34.9416 44 25C44 15.0598 35.9418 7.00098 25.9997 7.00098L25.9999 7.00014L26 7ZM34.2545 32.9613C33.9321 33.4901 33.2399 33.6577 32.7112 33.3332C28.485 30.7517 23.1649 30.167 16.8993 31.5985C16.6092 31.6646 16.3047 31.6127 16.0528 31.4543C15.8009 31.2959 15.6222 31.0439 15.5561 30.7538C15.5231 30.6102 15.5188 30.4615 15.5433 30.3162C15.5679 30.1709 15.6209 30.0319 15.6993 29.9071C15.7776 29.7823 15.8799 29.6742 16.0001 29.589C16.1203 29.5038 16.2561 29.4431 16.3998 29.4104C23.2567 27.8439 29.138 28.5183 33.8827 31.418C34.4115 31.7425 34.5791 32.4326 34.2545 32.9613ZM36.4577 28.0601C36.0513 28.7204 35.1873 28.9289 34.5275 28.5227C29.6892 25.5487 22.3138 24.6874 16.5911 26.4245C15.8488 26.6487 15.065 26.2305 14.8397 25.4895C14.6161 24.7473 15.0346 23.9649 15.7756 23.7393C22.3125 21.7556 30.4393 22.7165 35.9956 26.1309C36.6554 26.5373 36.864 27.4012 36.4577 28.0601ZM36.6469 22.9564C30.8455 19.5106 21.2742 19.1936 15.7354 20.8749C14.8459 21.1446 13.9053 20.6425 13.6358 19.753C13.3662 18.8631 13.8679 17.9232 14.758 17.6528C21.1161 15.7225 31.686 16.0956 38.365 20.0607C39.1669 20.5354 39.429 21.5687 38.954 22.3676C38.4812 23.1678 37.445 23.4315 36.6477 22.9564H36.6469Z" fill="#1ED760"/>
</g>
<defs>
<clipPath id="clip0_46_118">
<rect width="36" height="36" fill="white" transform="translate(8 7)"/>
</clipPath>
</defs>
</svg>
