<svg width="175" height="50" viewBox="0 0 175 50" fill="none" xmlns="http://www.w3.org/2000/svg">
<rect x="0.5" y="0.5" width="174" height="49" rx="7.5" stroke="#8D8D8D"/>
<path d="M56.233 20V9.81818H57.4659V18.9062H62.1989V20H56.233ZM63.9489 20V12.3636H65.1222V20H63.9489ZM64.5455 11.0909C64.3168 11.0909 64.1196 11.013 63.9538 10.8572C63.7914 10.7015 63.7102 10.5142 63.7102 10.2955C63.7102 10.0767 63.7914 9.88944 63.9538 9.73366C64.1196 9.57789 64.3168 9.5 64.5455 9.5C64.7741 9.5 64.9697 9.57789 65.1321 9.73366C65.2978 9.88944 65.3807 10.0767 65.3807 10.2955C65.3807 10.5142 65.2978 10.7015 65.1321 10.8572C64.9697 11.013 64.7741 11.0909 64.5455 11.0909ZM72.6802 14.0739L71.6262 14.3722C71.56 14.1965 71.4622 14.0258 71.3329 13.8601C71.207 13.6911 71.0346 13.5518 70.8159 13.4425C70.5971 13.3331 70.3171 13.2784 69.9757 13.2784C69.5083 13.2784 69.1189 13.3861 68.8074 13.6016C68.4991 13.8137 68.345 14.0838 68.345 14.4119C68.345 14.7036 68.4511 14.9339 68.6632 15.103C68.8753 15.272 69.2067 15.4129 69.6575 15.5256L70.791 15.804C71.4738 15.9697 71.9825 16.2232 72.3173 16.5646C72.652 16.9027 72.8194 17.3385 72.8194 17.8722C72.8194 18.3097 72.6935 18.7008 72.4416 19.0455C72.193 19.3902 71.845 19.6619 71.3975 19.8608C70.9501 20.0597 70.4297 20.1591 69.8365 20.1591C69.0576 20.1591 68.4129 19.9901 67.9025 19.652C67.3921 19.3139 67.069 18.8201 66.9331 18.1705L68.0467 17.892C68.1528 18.303 68.3533 18.6113 68.6483 18.8168C68.9466 19.0223 69.336 19.125 69.8166 19.125C70.3635 19.125 70.7976 19.009 71.1191 18.777C71.444 18.5417 71.6064 18.2599 71.6064 17.9318C71.6064 17.6667 71.5136 17.4446 71.3279 17.2656C71.1423 17.0833 70.8573 16.9474 70.4728 16.858L69.2001 16.5597C68.5008 16.3939 67.987 16.1371 67.6589 15.7891C67.3341 15.4377 67.1717 14.9986 67.1717 14.4716C67.1717 14.0407 67.2927 13.6596 67.5346 13.3281C67.7799 12.9967 68.113 12.7365 68.5339 12.5476C68.9582 12.3587 69.4387 12.2642 69.9757 12.2642C70.7314 12.2642 71.3246 12.4299 71.7555 12.7614C72.1897 13.0928 72.4979 13.5303 72.6802 14.0739ZM77.9066 12.3636V13.358H73.9492V12.3636H77.9066ZM75.1026 10.5341H76.2759V17.8125C76.2759 18.1439 76.324 18.3925 76.4201 18.5582C76.5195 18.7206 76.6455 18.83 76.7979 18.8864C76.9537 18.9394 77.1178 18.9659 77.2901 18.9659C77.4194 18.9659 77.5255 18.9593 77.6083 18.946C77.6912 18.9295 77.7575 18.9162 77.8072 18.9062L78.0458 19.9602C77.9663 19.9901 77.8552 20.0199 77.7127 20.0497C77.5702 20.0829 77.3896 20.0994 77.1708 20.0994C76.8394 20.0994 76.5146 20.0282 76.1964 19.8857C75.8815 19.7431 75.6197 19.526 75.4109 19.2344C75.2054 18.9427 75.1026 18.5748 75.1026 18.1307V10.5341ZM82.7912 20.1591C82.0554 20.1591 81.4207 19.9967 80.8871 19.6719C80.3568 19.3438 79.9474 18.8864 79.6591 18.2997C79.3741 17.7098 79.2315 17.0237 79.2315 16.2415C79.2315 15.4593 79.3741 14.7699 79.6591 14.1733C79.9474 13.5734 80.3485 13.1061 80.8622 12.7713C81.3793 12.4332 81.9825 12.2642 82.6719 12.2642C83.0696 12.2642 83.4624 12.3305 83.8501 12.4631C84.2379 12.5956 84.5909 12.8111 84.9091 13.1094C85.2273 13.4044 85.4808 13.7955 85.6697 14.2827C85.8587 14.7699 85.9531 15.3698 85.9531 16.0824V16.5795H80.0668V15.5653H84.7599C84.7599 15.1345 84.6738 14.75 84.5014 14.4119C84.3324 14.0739 84.0904 13.8071 83.7756 13.6115C83.464 13.416 83.0961 13.3182 82.6719 13.3182C82.2045 13.3182 81.8002 13.4342 81.4588 13.6662C81.1207 13.8949 80.8606 14.1932 80.6783 14.5611C80.496 14.929 80.4048 15.3234 80.4048 15.7443V16.4205C80.4048 16.9972 80.5043 17.486 80.7031 17.8871C80.9053 18.2848 81.1854 18.5881 81.5433 18.7969C81.9013 19.0024 82.3172 19.1051 82.7912 19.1051C83.0994 19.1051 83.3778 19.062 83.6264 18.9759C83.8783 18.8864 84.0954 18.7538 84.2777 18.5781C84.46 18.3991 84.6009 18.1771 84.7003 17.9119L85.8338 18.2301C85.7145 18.6146 85.514 18.9527 85.2322 19.2443C84.9505 19.5327 84.6025 19.758 84.1882 19.9205C83.7739 20.0795 83.3082 20.1591 82.7912 20.1591ZM88.9112 15.4062V20H87.7379V12.3636H88.8714V13.5568H88.9709C89.1499 13.169 89.4216 12.8575 89.7862 12.6222C90.1508 12.3835 90.6214 12.2642 91.1982 12.2642C91.7152 12.2642 92.1676 12.3703 92.5554 12.5824C92.9432 12.7912 93.2448 13.1094 93.4602 13.5369C93.6757 13.9612 93.7834 14.4981 93.7834 15.1477V20H92.6101V15.2273C92.6101 14.6274 92.4543 14.16 92.1428 13.8253C91.8312 13.4872 91.4036 13.3182 90.8601 13.3182C90.4856 13.3182 90.1508 13.3994 89.8558 13.5618C89.5642 13.7242 89.3338 13.9612 89.1648 14.2727C88.9957 14.5843 88.9112 14.9621 88.9112 15.4062ZM102.967 20.1591C102.278 20.1591 101.673 19.995 101.153 19.6669C100.635 19.3388 100.231 18.8797 99.9395 18.2898C99.6511 17.6998 99.5069 17.0104 99.5069 16.2216C99.5069 15.4261 99.6511 14.7318 99.9395 14.1385C100.231 13.5452 100.635 13.0845 101.153 12.7564C101.673 12.4283 102.278 12.2642 102.967 12.2642C103.657 12.2642 104.26 12.4283 104.777 12.7564C105.297 13.0845 105.702 13.5452 105.99 14.1385C106.282 14.7318 106.427 15.4261 106.427 16.2216C106.427 17.0104 106.282 17.6998 105.99 18.2898C105.702 18.8797 105.297 19.3388 104.777 19.6669C104.26 19.995 103.657 20.1591 102.967 20.1591ZM102.967 19.1051C103.491 19.1051 103.922 18.9709 104.26 18.7024C104.598 18.4339 104.848 18.081 105.01 17.6435C105.173 17.206 105.254 16.732 105.254 16.2216C105.254 15.7112 105.173 15.2356 105.01 14.7947C104.848 14.3539 104.598 13.9976 104.26 13.7259C103.922 13.4541 103.491 13.3182 102.967 13.3182C102.443 13.3182 102.013 13.4541 101.675 13.7259C101.336 13.9976 101.086 14.3539 100.924 14.7947C100.761 15.2356 100.68 15.7112 100.68 16.2216C100.68 16.732 100.761 17.206 100.924 17.6435C101.086 18.081 101.336 18.4339 101.675 18.7024C102.013 18.9709 102.443 19.1051 102.967 19.1051ZM109.392 15.4062V20H108.218V12.3636H109.352V13.5568H109.451C109.63 13.169 109.902 12.8575 110.267 12.6222C110.631 12.3835 111.102 12.2642 111.679 12.2642C112.196 12.2642 112.648 12.3703 113.036 12.5824C113.424 12.7912 113.725 13.1094 113.941 13.5369C114.156 13.9612 114.264 14.4981 114.264 15.1477V20H113.091V15.2273C113.091 14.6274 112.935 14.16 112.623 13.8253C112.312 13.4872 111.884 13.3182 111.341 13.3182C110.966 13.3182 110.631 13.3994 110.336 13.5618C110.045 13.7242 109.814 13.9612 109.645 14.2727C109.476 14.5843 109.392 14.9621 109.392 15.4062Z" fill="black"/>
<path d="M57.4141 26.625L59.9141 31.9297L62.4297 26.625H64.7891L61.0078 33.8359V38H58.8281V33.8359L55.0391 26.625H57.4141ZM64.8906 33.8594V33.6953C64.8906 33.0755 64.9792 32.5052 65.1562 31.9844C65.3333 31.4583 65.5911 31.0026 65.9297 30.6172C66.2682 30.2318 66.6823 29.9323 67.1719 29.7188C67.6615 29.5 68.2188 29.3906 68.8438 29.3906C69.4792 29.3906 70.0417 29.5 70.5312 29.7188C71.026 29.9323 71.4427 30.2318 71.7812 30.6172C72.1198 31.0026 72.3776 31.4583 72.5547 31.9844C72.7318 32.5052 72.8203 33.0755 72.8203 33.6953V33.8594C72.8203 34.474 72.7318 35.0443 72.5547 35.5703C72.3776 36.0911 72.1198 36.5469 71.7812 36.9375C71.4427 37.3229 71.0286 37.6224 70.5391 37.8359C70.0495 38.0495 69.4896 38.1562 68.8594 38.1562C68.2344 38.1562 67.6745 38.0495 67.1797 37.8359C66.6849 37.6224 66.2682 37.3229 65.9297 36.9375C65.5911 36.5469 65.3333 36.0911 65.1562 35.5703C64.9792 35.0443 64.8906 34.474 64.8906 33.8594ZM66.9531 33.6953V33.8594C66.9531 34.2292 66.9896 34.5755 67.0625 34.8984C67.1354 35.2214 67.2474 35.5052 67.3984 35.75C67.5495 35.9948 67.7448 36.1875 67.9844 36.3281C68.2292 36.4635 68.5208 36.5312 68.8594 36.5312C69.1927 36.5312 69.4792 36.4635 69.7188 36.3281C69.9583 36.1875 70.1536 35.9948 70.3047 35.75C70.4609 35.5052 70.5755 35.2214 70.6484 34.8984C70.7214 34.5755 70.7578 34.2292 70.7578 33.8594V33.6953C70.7578 33.3307 70.7214 32.9896 70.6484 32.6719C70.5755 32.349 70.4609 32.0651 70.3047 31.8203C70.1536 31.5703 69.9557 31.375 69.7109 31.2344C69.4714 31.0885 69.1823 31.0156 68.8438 31.0156C68.5104 31.0156 68.224 31.0885 67.9844 31.2344C67.7448 31.375 67.5495 31.5703 67.3984 31.8203C67.2474 32.0651 67.1354 32.349 67.0625 32.6719C66.9896 32.9896 66.9531 33.3307 66.9531 33.6953ZM79.3516 35.9922V29.5469H81.4297V38H79.4766L79.3516 35.9922ZM79.6172 34.2422L80.2578 34.2266C80.2578 34.7943 80.1953 35.3177 80.0703 35.7969C79.9453 36.276 79.75 36.6927 79.4844 37.0469C79.224 37.3958 78.8932 37.6693 78.4922 37.8672C78.0911 38.0599 77.6172 38.1562 77.0703 38.1562C76.6536 38.1562 76.2734 38.099 75.9297 37.9844C75.5859 37.8646 75.2891 37.6797 75.0391 37.4297C74.7943 37.1745 74.6042 36.849 74.4688 36.4531C74.3333 36.0521 74.2656 35.5703 74.2656 35.0078V29.5469H76.3281V35.0234C76.3281 35.3047 76.3594 35.5391 76.4219 35.7266C76.4896 35.9141 76.5807 36.0677 76.6953 36.1875C76.8151 36.3021 76.9531 36.3854 77.1094 36.4375C77.2708 36.4844 77.4427 36.5078 77.625 36.5078C78.125 36.5078 78.5182 36.4089 78.8047 36.2109C79.0964 36.0078 79.3047 35.737 79.4297 35.3984C79.5547 35.0547 79.6172 34.6693 79.6172 34.2422ZM88.2969 26.625V38H86.1562V26.625H88.2969ZM91.8281 26.625V28.3203H82.6641V26.625H91.8281ZM97.5078 35.9922V29.5469H99.5859V38H97.6328L97.5078 35.9922ZM97.7734 34.2422L98.4141 34.2266C98.4141 34.7943 98.3516 35.3177 98.2266 35.7969C98.1016 36.276 97.9062 36.6927 97.6406 37.0469C97.3802 37.3958 97.0495 37.6693 96.6484 37.8672C96.2474 38.0599 95.7734 38.1562 95.2266 38.1562C94.8099 38.1562 94.4297 38.099 94.0859 37.9844C93.7422 37.8646 93.4453 37.6797 93.1953 37.4297C92.9505 37.1745 92.7604 36.849 92.625 36.4531C92.4896 36.0521 92.4219 35.5703 92.4219 35.0078V29.5469H94.4844V35.0234C94.4844 35.3047 94.5156 35.5391 94.5781 35.7266C94.6458 35.9141 94.737 36.0677 94.8516 36.1875C94.9714 36.3021 95.1094 36.3854 95.2656 36.4375C95.4271 36.4844 95.599 36.5078 95.7812 36.5078C96.2812 36.5078 96.6745 36.4089 96.9609 36.2109C97.2526 36.0078 97.4609 35.737 97.5859 35.3984C97.7109 35.0547 97.7734 34.6693 97.7734 34.2422ZM101.406 26H103.477V36.1328L103.273 38H101.406V26ZM108.914 33.6875V33.8516C108.914 34.4818 108.844 35.0599 108.703 35.5859C108.568 36.112 108.362 36.5677 108.086 36.9531C107.81 37.3333 107.466 37.6302 107.055 37.8438C106.648 38.0521 106.172 38.1562 105.625 38.1562C105.104 38.1562 104.651 38.0547 104.266 37.8516C103.885 37.6484 103.565 37.362 103.305 36.9922C103.044 36.6172 102.836 36.1771 102.68 35.6719C102.523 35.1615 102.406 34.6042 102.328 34V33.5547C102.406 32.9453 102.523 32.388 102.68 31.8828C102.836 31.3776 103.044 30.9375 103.305 30.5625C103.565 30.1875 103.885 29.8984 104.266 29.6953C104.646 29.4922 105.094 29.3906 105.609 29.3906C106.161 29.3906 106.643 29.4974 107.055 29.7109C107.471 29.9193 107.815 30.2161 108.086 30.6016C108.362 30.9818 108.568 31.4349 108.703 31.9609C108.844 32.4818 108.914 33.0573 108.914 33.6875ZM106.844 33.8516V33.6875C106.844 33.3281 106.815 32.9896 106.758 32.6719C106.701 32.349 106.607 32.0651 106.477 31.8203C106.346 31.5755 106.169 31.3828 105.945 31.2422C105.721 31.1016 105.44 31.0312 105.102 31.0312C104.779 31.0312 104.503 31.0859 104.273 31.1953C104.049 31.3047 103.862 31.4557 103.711 31.6484C103.565 31.8411 103.451 32.0677 103.367 32.3281C103.289 32.5885 103.237 32.8698 103.211 33.1719V34.3906C103.247 34.7917 103.333 35.1536 103.469 35.4766C103.604 35.7943 103.805 36.0469 104.07 36.2344C104.341 36.4219 104.69 36.5156 105.117 36.5156C105.451 36.5156 105.729 36.4505 105.953 36.3203C106.177 36.1849 106.354 35.9974 106.484 35.7578C106.615 35.513 106.706 35.2292 106.758 34.9062C106.815 34.5833 106.844 34.2318 106.844 33.8516ZM114.211 38.1562C113.57 38.1562 112.995 38.0521 112.484 37.8438C111.974 37.6354 111.539 37.3464 111.18 36.9766C110.826 36.6016 110.552 36.1667 110.359 35.6719C110.172 35.1719 110.078 34.6354 110.078 34.0625V33.75C110.078 33.099 110.172 32.5078 110.359 31.9766C110.547 31.4401 110.812 30.9792 111.156 30.5938C111.5 30.2083 111.911 29.9115 112.391 29.7031C112.87 29.4948 113.398 29.3906 113.977 29.3906C114.576 29.3906 115.104 29.4922 115.562 29.6953C116.021 29.8932 116.404 30.1745 116.711 30.5391C117.018 30.9036 117.25 31.3411 117.406 31.8516C117.562 32.3568 117.641 32.9167 117.641 33.5312V34.3984H111.016V32.9766H115.609V32.8203C115.599 32.4922 115.536 32.1927 115.422 31.9219C115.307 31.6458 115.13 31.4271 114.891 31.2656C114.651 31.099 114.341 31.0156 113.961 31.0156C113.654 31.0156 113.385 31.0833 113.156 31.2188C112.932 31.349 112.745 31.5365 112.594 31.7812C112.448 32.0208 112.339 32.3073 112.266 32.6406C112.193 32.974 112.156 33.3438 112.156 33.75V34.0625C112.156 34.4167 112.203 34.7448 112.297 35.0469C112.396 35.349 112.539 35.612 112.727 35.8359C112.919 36.0547 113.148 36.2266 113.414 36.3516C113.685 36.4714 113.992 36.5312 114.336 36.5312C114.768 36.5312 115.159 36.4479 115.508 36.2812C115.862 36.1094 116.169 35.8568 116.43 35.5234L117.469 36.6016C117.292 36.862 117.052 37.112 116.75 37.3516C116.453 37.5911 116.094 37.7865 115.672 37.9375C115.25 38.0833 114.763 38.1562 114.211 38.1562Z" fill="black"/>
<g clip-path="url(#clip0_46_131)">
<path d="M42.2049 15.948C41.9984 15.185 41.5957 14.4893 41.0367 13.9303C40.4777 13.3713 39.782 12.9684 39.0189 12.7619C36.2253 12 24.9817 12 24.9817 12C24.9817 12 13.7377 12.0231 10.944 12.785C10.1809 12.9915 9.48521 13.3943 8.92623 13.9534C8.36725 14.5124 7.96446 15.2081 7.758 15.9712C6.91298 20.935 6.58518 28.4987 7.7812 33.2639C7.98769 34.027 8.39048 34.7227 8.94946 35.2817C9.50844 35.8407 10.2041 36.2435 10.9672 36.45C13.7609 37.212 25.0047 37.212 25.0047 37.212C25.0047 37.212 36.2483 37.212 39.0419 36.45C39.805 36.2435 40.5007 35.8407 41.0597 35.2817C41.6187 34.7227 42.0215 34.027 42.228 33.2639C43.1193 28.2931 43.3939 20.7341 42.2049 15.948Z" fill="#FF0000"/>
<path d="M21.4028 30.0084L30.7302 24.6059L21.4028 19.2034V30.0084Z" fill="white"/>
</g>
<defs>
<clipPath id="clip0_46_131">
<rect width="36" height="25.3125" fill="white" transform="translate(7 12)"/>
</clipPath>
</defs>
</svg>
